<?xml version="1.0" encoding="utf-8"?>
<!-- Generator: Adobe Illustrator 25.4.1, SVG Export Plug-In . SVG Version: 6.00 Build 0)  -->
<svg version="1.1" id="Calque_1" xmlns="http://www.w3.org/2000/svg" xmlns:xlink="http://www.w3.org/1999/xlink" x="0px" y="0px"
	 viewBox="0 0 291.5 138.2" style="enable-background:new 0 0 291.5 138.2;" xml:space="preserve">
<style type="text/css">
	.st0{fill:#1E1E1C;}
	.st1{fill:#B6D380;}
</style>
<g>
	<path class="st0" d="M123.1,61.6c0,10.1-3.3,18.7-9.6,25.9c-6.2,7.2-13.6,10.7-22.3,10.7c-10.1,0-18.3-4.6-24.7-13.7
		C60.2,93.6,52,98.2,41.9,98.2c-8.7,0-16.2-3.6-22.3-10.7c-6.2-7.1-9.3-15.7-9.3-25.9V32c0-1.9,0.7-3.7,2.1-5c1.3-1.4,3-2.1,4.9-2.1
		c1.9,0,3.7,0.7,4.9,2.1c1.3,1.3,2,3.1,2,5v29.6c-0.2,5.8,1.7,11.4,5.2,16c3.5,4.5,7.7,6.7,12.5,6.7c4.8,0,9-2.2,12.5-6.7
		c3.5-4.6,5.4-10.2,5.2-16V32c0-1.9,0.7-3.6,2-5c2.7-2.7,7.1-2.8,9.9-0.1c0,0,0,0,0,0l0.1,0c1.3,1.3,2,3.1,2,5v29.6
		c-0.2,5.8,1.6,11.4,5.1,16c3.4,4.5,7.6,6.7,12.5,6.7c4.9,0,9.1-2.2,12.5-6.7c3.5-4.6,5.6-10.2,5.5-16"/>
	<path class="st0" d="M182.5,31.3c5-4.1,11.3-6.3,17.8-6.3c10.1,0,18.3,4.6,24.7,13.7c6.4-9.1,14.6-13.7,24.7-13.7
		c8.7,0,16.1,3.6,22.3,10.7c6.2,7.1,9.3,15.7,9.3,25.9v29.6c0,1.9-0.7,3.7-2.1,4.9c-1.3,1.4-3,2.1-4.9,2.1c-1.9,0-3.7-0.7-5-2.1
		c-1.3-1.3-2-3.1-2-5V61.5c0.2-5.8-1.7-11.4-5.2-16c-3.5-4.4-7.6-6.7-12.5-6.7c-4.9,0-9,2.2-12.5,6.7c-3.6,4.5-5.4,10.2-5.3,16v29.6
		c0,1.9-0.7,3.6-2,4.9c-2.7,2.7-7.1,2.8-9.8,0.1c0,0,0,0,0,0l-0.1,0c-1.3-1.3-2-3.1-2-4.9V61.5c0.2-5.8-1.7-11.4-5.2-16
		c-3.4-4.4-7.6-6.7-12.5-6.7c-4.9,0-9.1,2.2-12.5,6.6c-3.5,4.6-5.4,10.2-5.3,16v29.6"/>
	<path class="st1" d="M180.5,6.9c-1.3-1.4-3-2.1-4.9-2.1c-1.9,0-3.7,0.7-5,2.1c-1.3,1.3-2,3.1-2,4.9V33c-6.4-5.3-14.5-8.2-22.8-8
		c-9.7-0.1-19.1,3.7-25.9,10.7c-7,6.8-10.9,16.1-10.7,25.9c0,20.2,16.3,36.5,36.5,36.6c0,0,0.1,0,0.1,0c5.3,0,10.5-1.1,15.4-3.4
		c3.5-1.5,5.1-5.6,3.6-9.1s-5.6-5.1-9.1-3.6c-0.1,0-0.2,0.1-0.3,0.1c-11.4,5.2-24.8,0.3-30-11.1c-5.2-11.4-0.3-24.8,11.1-30
		s24.8-0.3,30,11.1c1.4,3,2.1,6.2,2.1,9.5l0,0l0.2,36.5h14V11.8C182.6,9.9,181.8,8.1,180.5,6.9z"/>
	<path class="st0" d="M33.9,109.7c0.1,0.1,0.2,0.2,0.2,0.4l-0.1,0.3l-6.1,17.4c0,0.1-0.1,0.2-0.2,0.3c-0.1,0.1-0.2,0.1-0.3,0.1
		c-0.2,0-0.5-0.1-0.5-0.3l-4.8-12.2l-4.8,12.2c-0.1,0.2-0.3,0.3-0.6,0.3c-0.1,0-0.2,0-0.3-0.1c-0.1-0.1-0.1-0.1-0.2-0.3l-6.1-17.4
		v-0.2c0-0.2,0.1-0.3,0.2-0.4c0.1-0.1,0.2-0.1,0.4-0.1c0.1,0,0.2,0,0.3,0.1c0.1,0.1,0.2,0.1,0.2,0.3l5.6,16.2l4.8-12
		c0.1-0.2,0.3-0.4,0.5-0.3c0.1,0,0.2,0,0.3,0.1c0.1,0.1,0.2,0.1,0.2,0.3l4.8,12.1L33,110c0.1-0.2,0.3-0.4,0.5-0.3
		C33.6,109.6,33.7,109.6,33.9,109.7z"/>
	<path class="st0" d="M47.5,125c0.2,0.2,0.2,0.5,0,0.7c-0.6,0.8-1.3,1.4-2.2,1.9c-0.8,0.5-1.8,0.7-2.8,0.7c-1.2,0-2.4-0.3-3.5-0.8
		c-1-0.6-1.8-1.4-2.4-2.4c-0.6-1.1-0.9-2.4-0.9-3.6c0-1.3,0.3-2.6,0.8-3.7c0.5-1,1.3-1.9,2.2-2.4c0.9-0.6,1.9-0.8,2.9-0.8
		c1,0,2,0.2,2.9,0.7c0.9,0.5,1.7,1.2,2.2,2c0.6,1,0.9,2.2,0.9,3.3c0,0.1-0.1,0.3-0.2,0.4c-0.1,0.1-0.2,0.2-0.4,0.2H36.9v0.3
		c0,1,0.2,2.1,0.7,3c0.4,0.9,1.1,1.6,2,2.1c0.9,0.6,2,0.8,3.1,0.8c0.8,0,1.7-0.2,2.4-0.6c0.7-0.4,1.3-0.9,1.8-1.6
		c0.1-0.2,0.3-0.2,0.4-0.2C47.3,124.9,47.4,125,47.5,125z M39.8,116c-0.7,0.4-1.3,0.9-1.8,1.5c-0.5,0.7-0.9,1.6-1,2.5h9.7v-0.2
		c-0.1-0.8-0.4-1.6-0.9-2.3c-0.5-0.6-1.1-1.1-1.8-1.5c-0.7-0.3-1.5-0.5-2.2-0.5C41.1,115.5,40.4,115.7,39.8,116z"/>
	<path class="st0" d="M60.5,115.4c0.9,0.6,1.7,1.4,2.2,2.5c0.5,1.1,0.8,2.3,0.8,3.5c0,1.2-0.3,2.5-0.8,3.6c-0.5,1-1.3,1.9-2.2,2.5
		c-0.9,0.6-2,0.9-3.1,0.9c-1,0-2-0.3-2.9-0.8c-0.9-0.6-1.7-1.4-2.2-2.3v2.3c0,0.1-0.1,0.3-0.1,0.4c-0.1,0.1-0.2,0.2-0.4,0.2
		c-0.3,0-0.5-0.2-0.5-0.5v-18.5c0-0.1,0.1-0.3,0.1-0.4c0.1-0.1,0.2-0.2,0.4-0.2c0.1,0,0.3,0.1,0.4,0.2c0.1,0.1,0.2,0.2,0.1,0.4v8.6
		c0.5-1,1.2-1.8,2.1-2.4c0.9-0.6,1.9-0.8,2.9-0.8C58.5,114.5,59.6,114.8,60.5,115.4z M59.9,126.5c0.8-0.5,1.4-1.3,1.9-2.1
		c0.5-1,0.7-2,0.7-3.1c0-1-0.2-2.1-0.7-3c-0.4-0.8-1.1-1.6-1.9-2.1c-1.6-1-3.7-1-5.3,0c-0.8,0.5-1.4,1.2-1.9,2.1
		c-0.4,0.9-0.7,2-0.7,3c0,1.1,0.2,2.1,0.7,3.1c0.4,0.9,1.1,1.6,1.9,2.2c0.8,0.5,1.7,0.8,2.6,0.8C58.2,127.3,59.1,127.1,59.9,126.5
		L59.9,126.5z"/>
	<path class="st1" d="M86.2,110.8c1.2,0.9,2,2,2.6,3.4c0.6,1.5,0.9,3.1,0.8,4.7c0,1.6-0.3,3.2-0.8,4.7c-0.5,1.3-1.4,2.5-2.5,3.3
		c-1.3,0.9-2.8,1.3-4.3,1.2h-6.9c-0.3,0-0.5-0.2-0.5-0.5v-17.5c0-0.3,0.2-0.5,0.5-0.5h6.9C83.5,109.5,85,110,86.2,110.8z
		 M86.8,124.8c1.2-1.7,1.8-3.8,1.7-5.9c0-1.4-0.2-2.8-0.7-4.1c-0.4-1.2-1.2-2.2-2.2-3c-1.1-0.8-2.5-1.2-3.9-1.1h-6v16.4h6
		C83.7,127.2,85.6,126.4,86.8,124.8L86.8,124.8z"/>
	<path class="st1" d="M104.1,125c0.2,0.2,0.2,0.5,0,0.7c-0.6,0.8-1.3,1.4-2.2,1.9c-0.8,0.5-1.8,0.7-2.8,0.7c-1.2,0-2.4-0.3-3.5-0.8
		c-1-0.6-1.8-1.4-2.4-2.4c-0.6-1.1-0.9-2.4-0.9-3.6c0-1.3,0.3-2.6,0.8-3.7c0.5-1,1.3-1.9,2.2-2.4c0.9-0.6,1.9-0.8,2.9-0.8
		c1,0,2,0.2,2.9,0.7c0.9,0.5,1.7,1.2,2.2,2c0.6,1,0.9,2.2,0.9,3.3c0,0.1-0.1,0.3-0.2,0.4c-0.1,0.1-0.2,0.2-0.4,0.2H93.4v0.3
		c0,1,0.2,2.1,0.7,3c0.4,0.9,1.1,1.6,2,2.1c0.9,0.6,2,0.8,3.1,0.8c0.8,0,1.7-0.2,2.4-0.6c0.7-0.4,1.3-0.9,1.8-1.6
		c0.1-0.1,0.3-0.2,0.4-0.2C103.9,124.9,104,125,104.1,125z M96.3,116c-0.7,0.4-1.3,0.9-1.8,1.5c-0.5,0.7-0.9,1.6-1,2.5h9.7v-0.2
		c-0.1-0.8-0.4-1.6-0.9-2.3c-0.5-0.6-1.1-1.1-1.8-1.5c-0.7-0.3-1.5-0.5-2.2-0.5C97.7,115.5,97,115.7,96.3,116z"/>
	<path class="st1" d="M106.9,125.5c0.1-0.3,0.3-0.4,0.5-0.5c0.2,0,0.3,0.1,0.4,0.2c0.9,1.4,2.6,2.3,4.3,2.2c0.9,0,1.7-0.2,2.5-0.7
		c0.7-0.4,1.1-1.1,1.1-1.9c0.1-0.7-0.3-1.5-0.9-1.9c-0.8-0.5-1.6-0.8-2.5-1c-1.2-0.3-2.4-0.7-3.4-1.4c-0.8-0.6-1.3-1.5-1.2-2.5
		c0-1,0.4-2,1.2-2.6c0.9-0.7,2-1.1,3.2-1c0.7,0,1.5,0.1,2.1,0.4c0.7,0.3,1.4,0.8,1.9,1.3c0.1,0.1,0.2,0.2,0.2,0.4
		c0,0.2-0.1,0.3-0.2,0.4c-0.1,0.1-0.2,0.1-0.3,0.1c-0.1,0-0.2-0.1-0.3-0.2c-0.9-1-2.2-1.5-3.5-1.5c-0.8,0-1.7,0.2-2.4,0.7
		c-0.6,0.4-1,1.2-0.9,1.9c0,0.7,0.4,1.4,1,1.7c0.9,0.5,1.8,0.9,2.8,1.1c0.8,0.2,1.5,0.4,2.2,0.8c0.6,0.2,1.1,0.6,1.4,1.1
		c0.4,0.6,0.6,1.2,0.5,1.9c0,1-0.4,2-1.3,2.6c-1,0.7-2.2,1-3.3,0.9c-1.9,0-3.8-0.8-5-2.4C107,125.8,106.9,125.6,106.9,125.5z"/>
	<path class="st1" d="M119.9,112.4c-0.2-0.2-0.2-0.4-0.2-0.6v-0.2c0-0.2,0.1-0.5,0.3-0.6c0.2-0.2,0.4-0.3,0.7-0.2
		c0.2,0,0.5,0.1,0.6,0.2c0.2,0.2,0.3,0.4,0.2,0.6v0.2c0,0.2-0.1,0.5-0.2,0.6c-0.2,0.2-0.4,0.2-0.7,0.2
		C120.4,112.7,120.1,112.6,119.9,112.4z M121,127.9c-0.1,0.1-0.2,0.2-0.4,0.2c-0.1,0-0.3-0.1-0.4-0.2c-0.1-0.1-0.1-0.2-0.1-0.4V115
		c0-0.3,0.3-0.5,0.6-0.5c0,0,0,0,0,0c0.1,0,0.2,0,0.3,0.1c0.1,0.1,0.1,0.2,0.1,0.4v12.6C121.1,127.7,121.1,127.8,121,127.9
		L121,127.9z"/>
	<path class="st1" d="M137.3,115.1c0.1,0.1,0.1,0.2,0.1,0.4v11.4c0,1.2-0.2,2.4-0.8,3.5c-0.5,1-1.3,1.8-2.3,2.3
		c-1,0.6-2.2,0.8-3.4,0.8c-0.7,0-1.4-0.1-2.1-0.3c-0.6-0.1-1.2-0.4-1.8-0.7c-0.5-0.3-0.7-0.6-0.7-0.9c0-0.1,0-0.2,0.1-0.3
		c0.1-0.1,0.2-0.1,0.3-0.1c0.2,0,0.4,0.1,0.5,0.3c0.2,0.2,0.5,0.4,0.8,0.6c0.9,0.4,1.9,0.5,2.9,0.5c1.5,0.1,2.9-0.5,3.9-1.5
		c1-1.1,1.5-2.6,1.5-4v-1.9c-0.4,1.1-1.2,2-2.2,2.5c-1,0.5-2,0.8-3.1,0.8c-1.2,0-2.3-0.3-3.3-0.9c-1-0.6-1.8-1.5-2.3-2.5
		c-1.1-2.2-1.1-4.9,0-7.1c0.5-1,1.3-1.9,2.3-2.5c1-0.6,2.1-0.9,3.3-0.9c1.1,0,2.3,0.3,3.2,0.9c0.9,0.6,1.6,1.4,2.1,2.4v-2.2
		c0-0.3,0.3-0.5,0.6-0.5C137.1,114.9,137.2,115,137.3,115.1z M133.9,126.6c0.8-0.5,1.5-1.2,1.9-2.1c0.9-2,0.9-4.2,0-6.2
		c-0.4-0.9-1.1-1.6-1.9-2.1c-0.8-0.5-1.8-0.8-2.8-0.7c-1,0-2,0.2-2.8,0.8c-0.8,0.5-1.5,1.2-1.9,2.1c-0.9,1.9-0.9,4.2,0,6.1
		c0.4,0.9,1.1,1.6,1.9,2.1c0.8,0.5,1.8,0.8,2.8,0.8C132,127.4,133,127.1,133.9,126.6L133.9,126.6z"/>
	<path class="st1" d="M151.3,115.9c0.8,1,1.2,2.3,1.2,3.6v8.1c0,0.3-0.2,0.5-0.5,0.5c-0.1,0-0.3-0.1-0.4-0.2
		c-0.1-0.1-0.1-0.2-0.1-0.4v-8c0-1.1-0.3-2.1-0.9-2.9c-0.7-0.8-1.8-1.2-2.8-1.1c-0.8,0-1.6,0.2-2.3,0.5c-0.7,0.4-1.4,0.9-1.9,1.5
		c-0.5,0.6-0.7,1.3-0.7,2v8c0,0.1-0.1,0.3-0.2,0.4c-0.1,0.1-0.2,0.2-0.4,0.2c-0.1,0-0.3,0-0.4-0.2c-0.1-0.1-0.1-0.2-0.1-0.4v-12.1
		c0-0.3,0.2-0.5,0.5-0.5c0.1,0,0.3,0,0.4,0.2c0.1,0.1,0.1,0.2,0.1,0.4v1.8c0.5-0.8,1.3-1.5,2.1-2c0.9-0.5,1.8-0.8,2.8-0.8
		C149.1,114.4,150.4,114.9,151.3,115.9z"/>
	<path class="st0" d="M181,109.8c0.1,0.1,0.1,0.2,0.1,0.4v17.4c0,0.1-0.1,0.3-0.2,0.4c-0.1,0.1-0.2,0.2-0.4,0.2
		c-0.1,0-0.3-0.1-0.4-0.2c-0.1-0.1-0.2-0.2-0.2-0.4v-15.8l-6.8,10.3c-0.1,0.1-0.2,0.2-0.4,0.2c-0.2,0-0.4-0.1-0.4-0.2l-6.8-10.3
		v15.8c0,0.1-0.1,0.3-0.2,0.4c-0.1,0.1-0.2,0.2-0.4,0.2c-0.1,0-0.3-0.1-0.4-0.2c-0.1-0.1-0.1-0.2-0.1-0.4v-17.4
		c0-0.1,0.1-0.3,0.1-0.4c0.1-0.1,0.2-0.2,0.4-0.2c0.2,0,0.4,0.1,0.5,0.2l7.3,10.9l7.3-10.9c0.1-0.2,0.3-0.3,0.5-0.2
		C180.8,109.6,180.9,109.7,181,109.8z"/>
	<path class="st0" d="M197.1,115.1c0.1,0.1,0.1,0.2,0.1,0.4v12.1c0,0.1,0,0.3-0.1,0.4c-0.1,0.1-0.2,0.2-0.4,0.2
		c-0.1,0-0.3-0.1-0.4-0.2c-0.1-0.1-0.1-0.2-0.1-0.4v-2.4c-0.5,0.9-1.2,1.7-2,2.3c-0.9,0.6-2,0.9-3,0.9c-1.1,0-2.2-0.3-3.1-0.9
		c-1-0.6-1.7-1.5-2.2-2.5c-0.5-1.1-0.8-2.3-0.8-3.6c0-1.2,0.3-2.4,0.8-3.5c0.5-1,1.3-1.9,2.2-2.5c0.9-0.6,2-0.9,3.1-0.9
		c1.1,0,2.2,0.3,3.1,0.9c0.9,0.6,1.6,1.4,2,2.4v-2.4c0-0.1,0-0.3,0.1-0.4c0.1-0.1,0.2-0.2,0.4-0.2
		C196.9,114.9,197,114.9,197.1,115.1z M193.8,126.6c0.8-0.5,1.4-1.3,1.9-2.2c0.4-1,0.7-2,0.7-3.1c0-1-0.2-2-0.7-2.9
		c-0.4-0.9-1.1-1.6-1.9-2.1c-0.8-0.5-1.7-0.8-2.6-0.8c-0.9,0-1.8,0.3-2.6,0.8c-0.8,0.5-1.4,1.2-1.9,2.1c-0.4,0.9-0.7,2-0.7,3
		c0,1.1,0.2,2.1,0.7,3.1c0.4,0.9,1.1,1.6,1.9,2.2C190.2,127.6,192.2,127.6,193.8,126.6z"/>
	<path class="st0" d="M208.8,115.1c0,0.1,0,0.3-0.1,0.4c-0.1,0.1-0.2,0.2-0.3,0.2c-0.1,0-0.3-0.1-0.4-0.1c-0.2-0.1-0.4-0.1-0.6-0.1
		c-0.8,0-1.6,0.3-2.2,0.9c-0.7,0.6-1.4,1.3-1.8,2.2c-0.4,0.8-0.7,1.6-0.7,2.5v6.6c0,0.3-0.2,0.5-0.5,0.5c-0.1,0-0.3-0.1-0.4-0.2
		c-0.1-0.1-0.2-0.2-0.1-0.4v-12.1c0-0.3,0.2-0.5,0.5-0.5c0.1,0,0.3,0,0.4,0.2c0.1,0.1,0.1,0.2,0.1,0.4v2.8c0.4-1,1-2,1.9-2.7
		c0.8-0.7,1.9-1.1,3-1.1C208.5,114.5,208.8,114.7,208.8,115.1z"/>
	<path class="st0" d="M218.7,114.7c0.6,0.1,1.2,0.4,1.7,0.7c0.4,0.3,0.7,0.6,0.7,0.9c0,0.1-0.1,0.3-0.1,0.4
		c-0.1,0.1-0.2,0.2-0.4,0.2c-0.1,0-0.2,0-0.4-0.1c-0.1-0.1-0.2-0.2-0.3-0.3c-0.2-0.2-0.4-0.4-0.7-0.6c-0.8-0.3-1.8-0.5-2.7-0.4
		c-1,0-2,0.3-2.8,0.8c-0.9,0.5-1.6,1.3-2,2.2c-0.5,0.9-0.8,1.9-0.8,3c0,1.1,0.2,2.1,0.7,3.1c0.4,0.9,1.1,1.6,2,2.1
		c0.9,0.5,1.9,0.8,2.9,0.8c0.6,0,1.1,0,1.7-0.2c0.4-0.1,0.8-0.3,1.2-0.5c0.3-0.2,0.5-0.4,0.7-0.6c0.1-0.1,0.2-0.2,0.3-0.2
		c0.1-0.1,0.2-0.1,0.3-0.1c0.1,0,0.2,0,0.3,0.1c0.1,0.1,0.1,0.2,0.1,0.3c0,0.2-0.2,0.5-0.6,0.9c-0.5,0.4-1.1,0.7-1.7,0.9
		c-0.8,0.3-1.6,0.4-2.4,0.4c-1.2,0-2.4-0.3-3.4-0.9c-1-0.6-1.8-1.5-2.3-2.5c-0.6-1.1-0.9-2.3-0.8-3.6c0-1.2,0.3-2.4,0.8-3.4
		c1.1-2.2,3.4-3.5,5.8-3.5C217.3,114.5,218,114.6,218.7,114.7z"/>
	<path class="st0" d="M233.6,116.2c0.8,1,1.3,2.3,1.2,3.7v7.7c0,0.3-0.2,0.5-0.5,0.5c-0.3,0-0.5-0.2-0.5-0.5c0,0,0,0,0,0v-7.7
		c0-1.1-0.3-2.1-0.9-3c-0.7-0.8-1.7-1.2-2.8-1.1c-0.8,0-1.5,0.2-2.2,0.6c-0.7,0.4-1.3,0.9-1.8,1.5c-0.4,0.6-0.7,1.3-0.7,2v7.7
		c0,0.3-0.2,0.5-0.5,0.5c-0.1,0-0.3-0.1-0.4-0.2c-0.1-0.1-0.1-0.2-0.1-0.4v-18.5c0-0.1,0.1-0.3,0.2-0.4c0.1-0.1,0.2-0.2,0.4-0.2
		c0.1,0,0.3,0.1,0.4,0.2c0.1,0.1,0.2,0.2,0.1,0.4v8.4c0.5-0.8,1.2-1.5,2-1.9c0.8-0.5,1.7-0.7,2.7-0.8
		C231.4,114.6,232.7,115.2,233.6,116.2z"/>
	<path class="st0" d="M250.4,115.1c0.1,0.1,0.1,0.2,0.1,0.4v12.1c0,0.3-0.3,0.5-0.5,0.5c-0.1,0-0.3-0.1-0.4-0.2
		c-0.1-0.1-0.1-0.2-0.1-0.4v-2.4c-0.5,0.9-1.2,1.7-2,2.3c-0.9,0.6-2,0.9-3,0.9c-1.1,0-2.2-0.3-3.1-0.9c-0.9-0.6-1.7-1.5-2.2-2.5
		c-0.5-1.1-0.8-2.3-0.8-3.6c0-1.2,0.3-2.4,0.8-3.5c0.5-1,1.3-1.9,2.2-2.5c0.9-0.6,2-0.9,3.1-0.9c1.1,0,2.2,0.3,3.1,0.9
		c0.9,0.6,1.6,1.4,2,2.4v-2.3c0-0.1,0.1-0.3,0.1-0.4c0.1-0.1,0.2-0.2,0.4-0.2C250.2,114.9,250.3,114.9,250.4,115.1z M247.1,126.6
		c0.8-0.5,1.4-1.3,1.9-2.2c0.4-1,0.7-2,0.7-3.1c0-1-0.2-2-0.7-2.9c-0.4-0.9-1.1-1.6-1.9-2.1c-0.8-0.5-1.7-0.8-2.6-0.8
		c-0.9,0-1.8,0.3-2.6,0.8c-0.8,0.5-1.4,1.2-1.9,2.1c-0.5,0.9-0.7,2-0.7,3c0,1.1,0.2,2.1,0.7,3.1c0.4,0.9,1.1,1.6,1.9,2.2
		C243.4,127.6,245.5,127.6,247.1,126.6z"/>
	<path class="st0" d="M264.5,115.9c0.8,1,1.3,2.3,1.2,3.6v8.1c0,0.3-0.2,0.5-0.5,0.5c-0.1,0-0.3-0.1-0.4-0.2
		c-0.1-0.1-0.1-0.2-0.1-0.4v-8c0-1.1-0.3-2.1-0.9-2.9c-0.7-0.8-1.8-1.2-2.8-1.1c-1.6,0-3.1,0.8-4.1,2.1c-0.5,0.6-0.7,1.3-0.7,2v8
		c0,0.1-0.1,0.3-0.2,0.4c-0.1,0.1-0.2,0.2-0.4,0.2c-0.1,0-0.3,0-0.4-0.2c-0.1-0.1-0.1-0.2-0.1-0.4v-12.1c0-0.3,0.2-0.5,0.5-0.5
		c0.1,0,0.3,0,0.4,0.2c0.1,0.1,0.2,0.2,0.1,0.4v1.8c0.5-0.8,1.3-1.5,2.2-2c0.8-0.5,1.8-0.8,2.8-0.8
		C262.3,114.4,263.6,114.9,264.5,115.9z"/>
	<path class="st0" d="M281.2,108.7c0.1,0.1,0.2,0.2,0.1,0.4v18.5c0,0.3-0.2,0.5-0.5,0.5c-0.1,0-0.3-0.1-0.4-0.2
		c-0.1-0.1-0.1-0.2-0.1-0.4V125c-0.4,1-1.1,1.8-2,2.3c-0.9,0.6-2,0.9-3.1,0.9c-1.1,0-2.2-0.3-3.1-0.9c-0.9-0.6-1.7-1.5-2.2-2.5
		c-1.1-2.2-1.1-4.8,0-7.1c0.5-1,1.3-1.9,2.2-2.5c0.9-0.6,2-0.9,3.1-0.9c1.1,0,2.1,0.3,3,0.9c0.9,0.6,1.6,1.4,2,2.4v-8.8
		c0-0.1,0.1-0.3,0.1-0.4c0.1-0.1,0.2-0.2,0.4-0.2C281,108.4,281.2,108.5,281.2,108.7z M278,126.5c0.8-0.5,1.4-1.3,1.9-2.1
		c0.9-1.9,0.9-4.2,0-6.1c-0.4-0.9-1.1-1.6-1.9-2.1c-0.8-0.5-1.7-0.8-2.6-0.8c-0.9,0-1.8,0.3-2.6,0.8c-0.8,0.5-1.4,1.3-1.9,2.1
		c-0.9,1.9-0.9,4.1,0,6.1c0.4,0.9,1.1,1.6,1.9,2.1c0.8,0.5,1.7,0.8,2.6,0.8C276.3,127.3,277.2,127.1,278,126.5L278,126.5z"/>
</g>
</svg>
