<svg xmlns="http://www.w3.org/2000/svg" width="24" height="21" viewBox="0 0 24 21">
  <g id="Groupe_1393" data-name="Groupe 1393" transform="translate(226 6585)">
    <rect id="Rectangle_3469" data-name="Rectangle 3469" width="24" height="21" transform="translate(-226 -6585)" fill="none"/>
    <path id="ic_settings_applications_24px" d="M10.5,8.833A1.667,1.667,0,1,0,12.167,10.5,1.672,1.672,0,0,0,10.5,8.833ZM16.333,3H4.667A1.666,1.666,0,0,0,3,4.667V16.333A1.666,1.666,0,0,0,4.667,18H16.333A1.666,1.666,0,0,0,18,16.333V4.667A1.666,1.666,0,0,0,16.333,3Zm-1.458,7.5a4.218,4.218,0,0,1-.042.567l1.233.967a.294.294,0,0,1,.067.375l-1.167,2.017a.3.3,0,0,1-.358.125l-1.45-.583a4.469,4.469,0,0,1-.983.575l-.217,1.542a.3.3,0,0,1-.292.25H9.333a.3.3,0,0,1-.292-.242L8.825,14.55a4.285,4.285,0,0,1-.983-.575l-1.45.583a.3.3,0,0,1-.358-.125L4.867,12.417a.294.294,0,0,1,.067-.375l1.233-.967a4.448,4.448,0,0,1-.042-.575,4.217,4.217,0,0,1,.042-.567L4.933,8.967a.294.294,0,0,1-.067-.375L6.033,6.575a.3.3,0,0,1,.358-.125l1.45.583a4.469,4.469,0,0,1,.983-.575l.217-1.542a.3.3,0,0,1,.292-.25h2.333a.3.3,0,0,1,.292.242l.217,1.542a4.285,4.285,0,0,1,.983.575l1.45-.583a.3.3,0,0,1,.358.125l1.167,2.017a.294.294,0,0,1-.067.375l-1.233.967a4.448,4.448,0,0,1,.042.575Z" transform="translate(-224 -6582)" fill="#fff"/>
  </g>
</svg>
