<svg xmlns="http://www.w3.org/2000/svg" width="18.321" height="18.327" viewBox="0 0 18.321 18.327">
  <g id="Groupe_1463" data-name="Groupe 1463" transform="translate(-3071.702 -1271.981)">
    <path id="Tracé_700" data-name="Tracé 700" d="M3090.024,1287.731l-5.985-4.787a6.852,6.852,0,0,0-10.331-8.953,6.853,6.853,0,0,0,8.952,10.335l4.782,5.983Zm-15.779-4.584a6.095,6.095,0,1,1,4.31,1.785A6.1,6.1,0,0,1,3074.245,1283.147Z" transform="translate(0)" fill="#f5a766"/>
    <path id="Tracé_701" data-name="Tracé 701" d="M3073.813,1280.084h2.178v-3.135h-2.178Z" transform="translate(0.828 1.95)" fill="#f5a766"/>
    <path id="Tracé_702" data-name="Tracé 702" d="M3075.845,1280.39h2.174v-4.218h-2.174Z" transform="translate(1.626 1.645)" fill="#f5a766"/>
    <path id="Tracé_703" data-name="Tracé 703" d="M3077.873,1281h2.173v-6.387h-2.173Z" transform="translate(2.421 1.033)" fill="#f5a766"/>
  </g>
</svg>
