<svg xmlns="http://www.w3.org/2000/svg" width="24" height="21" viewBox="0 0 24 21">
  <g id="Groupe_1440" data-name="Groupe 1440" transform="translate(-196 -864)">
    <rect id="Rectangle_3493" data-name="Rectangle 3493" width="24" height="21" transform="translate(196 864)" fill="none"/>
    <path id="ic_system_update_alt_24px" d="M10.167,14.333,13.5,11H11V3.5H9.333V11h-2.5ZM17.667,3.5h-5V5.158h5V16.85h-15V5.158h5V3.5h-5A1.672,1.672,0,0,0,1,5.167V16.833A1.672,1.672,0,0,0,2.667,18.5h15a1.672,1.672,0,0,0,1.667-1.667V5.167A1.672,1.672,0,0,0,17.667,3.5Z" transform="translate(198 866.5)" fill="#ec7165"/>
  </g>
</svg>
