<svg xmlns="http://www.w3.org/2000/svg" width="24" height="21.492" viewBox="0 0 24 21.492">
  <g id="Groupe_1445" data-name="Groupe 1445" transform="translate(-196 -1014)">
    <rect id="Rectangle_3493" data-name="Rectangle 3493" width="24" height="21" transform="translate(196 1014)" fill="none"/>
    <g id="Groupe_1439" data-name="Groupe 1439" transform="translate(-182 921)">
      <g id="Groupe_1176" data-name="Groupe 1176" transform="translate(-1619.886 -1571.751)">
        <path id="Tracé_675" data-name="Tracé 675" d="M2013.1,1678.385a2.577,2.577,0,0,0-1.873-.936h-8.1a2.572,2.572,0,0,0-1.873.936,6.969,6.969,0,0,0-1.371,3.528,6.876,6.876,0,0,0,1.241,3.375,2.515,2.515,0,0,0,1.861.955h8.385a2.511,2.511,0,0,0,1.86-.955,6.854,6.854,0,0,0,1.241-3.375A6.983,6.983,0,0,0,2013.1,1678.385Zm-4.2-3.669a1.482,1.482,0,1,0-1.481-1.482A1.485,1.485,0,0,0,2008.909,1674.716Zm0-2.224a.742.742,0,1,1-.741.742A.742.742,0,0,1,2008.909,1672.492Zm.03,4.076h3.553v-.741H2008.2l-1.765-1.766a1.538,1.538,0,1,0-.562.488l1.278,1.277h-5.281v.742h7.07Zm-3.736-2.593a.742.742,0,1,1,.742-.741A.742.742,0,0,1,2005.2,1673.975Z" fill="#ec7165"/>
      </g>
      <g id="Groupe_1183" data-name="Groupe 1183" transform="translate(145)">
        <g id="Groupe_1182" data-name="Groupe 1182" transform="translate(246.583 100)">
          <path id="ic_cancel_24px" d="M6.315,2a4.315,4.315,0,1,0,4.315,4.315A4.312,4.312,0,0,0,6.315,2Z" transform="translate(-1.583 -2)" fill="#ec7165"/>
          <path id="ic_autorenew_24px" d="M6.3,2.435V3.3L7.443,2.148,6.3,1v.861A2.291,2.291,0,0,0,4.356,5.378l.419-.419a1.684,1.684,0,0,1-.2-.8A1.723,1.723,0,0,1,6.3,2.435Zm1.939.5-.419.419A1.719,1.719,0,0,1,6.3,5.877V5.017L5.148,6.164,6.3,7.312V6.451A2.291,2.291,0,0,0,8.235,2.934Z" transform="translate(-1.583 0)" fill="#fff"/>
        </g>
      </g>
    </g>
  </g>
</svg>
