<svg xmlns="http://www.w3.org/2000/svg" width="24" height="21.427" viewBox="0 0 24 21.427">
  <g id="Groupe_1442" data-name="Groupe 1442" transform="translate(-196 -924)">
    <rect id="Rectangle_3493" data-name="Rectangle 3493" width="24" height="21" transform="translate(196 924)" fill="none"/>
    <g id="Groupe_1433" data-name="Groupe 1433" transform="translate(-350.861 -771.025)">
      <path id="Tracé_679" data-name="Tracé 679" d="M558.537,1711.1c-.571,0-.9.544-.9,1.271s.344,1.249.911,1.249.9-.543.9-1.272C559.442,1711.68,559.119,1711.1,558.537,1711.1Z" fill="#ec7165"/>
      <path id="Tracé_680" data-name="Tracé 680" d="M568.478,1714.228v-4.039a2.223,2.223,0,0,0-2.224-2.224h-2.678l-4.025-3.729a.874.874,0,0,0,.049-.281.93.93,0,1,0-1.861,0,.942.942,0,0,0,.048.282l-4.023,3.727h-2.678a2.221,2.221,0,0,0-2.225,2.223v4.039a2.223,2.223,0,0,0,.652,1.574h0a2.217,2.217,0,0,0,1.571.649h15.169a2.224,2.224,0,0,0,2.223-2.224Zm-10.22-9.442a.915.915,0,0,0,.412.1.926.926,0,0,0,.412-.1l3.434,3.181h-7.69Zm-5.823,9.508a1.785,1.785,0,0,1-1.96-1.876,1.909,1.909,0,0,1,2.043-1.989,2.193,2.193,0,0,1,.922.168l-.173.671a1.818,1.818,0,0,0-.709-.139,1.23,1.23,0,0,0,.005,2.46,2.131,2.131,0,0,0,.705-.122l.128.661A2.384,2.384,0,0,1,552.435,1714.294Zm1.683-.06v-3.743h.85v3.031h1.488v.709Zm4.38.06a1.746,1.746,0,0,1-1.761-1.9,1.814,1.814,0,0,1,1.822-1.961,1.744,1.744,0,0,1,1.776,1.894A1.782,1.782,0,0,1,558.5,1714.294Zm3.476,0a2.434,2.434,0,0,1-1.062-.234l.174-.7a2.148,2.148,0,0,0,.938.234c.389,0,.594-.162.594-.406s-.179-.367-.628-.527c-.622-.217-1.026-.561-1.026-1.1,0-.64.532-1.128,1.416-1.128a2.281,2.281,0,0,1,.955.188l-.19.684a1.768,1.768,0,0,0-.782-.178c-.367,0-.544.167-.545.359,0,.24.211.346.7.529.661.246.971.59.971,1.117C563.484,1713.756,563,1714.293,561.974,1714.294Zm2.248-.061v-3.743h2.31v.693h-1.46v.777h1.378v.688h-1.377v.889h1.538v.694Z" fill="#ec7165"/>
    </g>
  </g>
</svg>
