<svg xmlns="http://www.w3.org/2000/svg" width="24" height="21.184" viewBox="0 0 24 21.184">
  <g id="Groupe_1927" data-name="Groupe 1927" transform="translate(5881 4544)">
    <rect id="Rectangle_3584" data-name="Rectangle 3584" width="24" height="21" transform="translate(-5881 -4544)" fill="none"/>
    <path id="Union_30" data-name="Union 30" d="M23.1,11.27l-.906.913-.9-.913-.9.913-.906-.913-.9.913-.9-.913-.906.913-.9-.913-.9.913-.9-.913-.906.913V0l.906.913L14.95,0l.9.913.9-.913.906.913L18.57,0l.9.913L20.38,0l.9.913.9-.913L23.1.915,24,0V12.183ZM14.95,9.138h7.239V7.92H14.95Zm0-2.438h7.239V5.483H14.95Zm0-2.436h7.239V3.046H14.95ZM4.281,11.784.394,7.862a1.354,1.354,0,0,1,0-1.91L6.085,0h4.977l1.007,1.015V6.092l-5.9,5.692a1.577,1.577,0,0,1-.987.4A1.431,1.431,0,0,1,4.281,11.784ZM6.507,6.647a1.216,1.216,0,0,0-.287.84v.286a1.241,1.241,0,0,0,.284.851.976.976,0,0,0,.769.32.97.97,0,0,0,.762-.318,1.231,1.231,0,0,0,.28-.838V7.507a1.24,1.24,0,0,0-.287-.864.987.987,0,0,0-.762-.315A.976.976,0,0,0,6.507,6.647ZM4.753,8.153l.513.294,2.29-4.4-.518-.294ZM4.3,3.484a1.236,1.236,0,0,0-.282.839V4.6a1.237,1.237,0,0,0,.289.862.983.983,0,0,0,.76.317.969.969,0,0,0,.758-.317,1.214,1.214,0,0,0,.284-.839V4.338a1.254,1.254,0,0,0-.285-.861.985.985,0,0,0-.764-.318A.957.957,0,0,0,4.3,3.484Zm4.5-1.2A1.013,1.013,0,0,0,9.806,3.3a1.071,1.071,0,0,0,.292-.042.984.984,0,0,0,.672-.68,1.036,1.036,0,0,0-.166-.912,1,1,0,0,0-.8-.4A1.011,1.011,0,0,0,8.8,2.284ZM7.03,8.153a.617.617,0,0,1-.1-.364v-.22c0-.393.113-.591.337-.591a.286.286,0,0,1,.248.141.662.662,0,0,1,.093.368v.352c-.01.306-.122.461-.333.461A.291.291,0,0,1,7.03,8.153ZM4.825,4.989a.618.618,0,0,1-.1-.37V4.333a.7.7,0,0,1,.092-.38.277.277,0,0,1,.245-.145.283.283,0,0,1,.249.145.679.679,0,0,1,.092.37v.285a.711.711,0,0,1-.09.375.278.278,0,0,1-.243.144A.294.294,0,0,1,4.825,4.989Z" transform="translate(-5881 -4535)" fill="#b7d47e"/>
  </g>
</svg>
