<svg xmlns="http://www.w3.org/2000/svg" width="25.177" height="21.346" viewBox="0 0 25.177 21.346">
  <g id="Groupe_1404" data-name="Groupe 1404" transform="translate(-107 4682)">
    <rect id="Rectangle_3480" data-name="Rectangle 3480" width="24" height="21" transform="translate(108 -4682)" fill="none"/>
    <path id="Soustraction_20" data-name="Soustraction 20" d="M-328.823,4779.346H-354v-13.661l1.686-1.685h23.49v15.345ZM-351.387,4776v1.81h.594v-.583h2.7v-.639h-2.7V4776Zm0-1.225v.642h3.3v-.642ZM-338,4774v1h6v-1Zm-13.328-1.653h0a.887.887,0,0,0-.088.444c0,.614.452,1.331,1.726,1.331,1.021,0,1.63-.464,1.63-1.241a1.288,1.288,0,0,0-.079-.5l-.537.063a1.093,1.093,0,0,1,.049.308c0,.446-.389.691-1.1.691s-1.131-.258-1.131-.691a.639.639,0,0,1,.064-.3ZM-345,4771v1h13v-1Zm-6.387.142v.642h3.3v-.642h-1.1l-.269-.146,1.365-.479v-.7l-1.864.75-1.433-.739v.7l1.057.44.028.01c.138.051.273.1.4.151v.01Zm0-3.284v1.435h3.3V4767.8h-.557v.852h-.89v-.752h-.535v.752h-.757v-.793ZM-345,4768v1h13v-1Zm-6.387-2.466v1.809h.594v-.582h2.7v-.641h-2.7v-.586Z" transform="translate(461 -9440)" fill="#b7d47e"/>
  </g>
</svg>
