<svg xmlns="http://www.w3.org/2000/svg" width="24" height="21" viewBox="0 0 24 21">
  <g id="Groupe_1452" data-name="Groupe 1452" transform="translate(-196 -1824)">
    <rect id="Rectangle_3495" data-name="Rectangle 3495" width="24" height="21" transform="translate(196 1824)" fill="none"/>
    <g id="Groupe_1447" data-name="Groupe 1447" transform="translate(-2648.483 314.282)">
      <path id="Tracé_689" data-name="Tracé 689" d="M2860.558,1527.959h-10.733a1.343,1.343,0,0,0,0,2.685h10.733a1.343,1.343,0,0,0,0-2.685Zm-9.926,2.2a.855.855,0,1,1,.853-.856A.853.853,0,0,1,2850.632,1530.157Z" fill="#ec7165"/>
      <path id="Tracé_690" data-name="Tracé 690" d="M2849.825,1524.082h8.709a3.476,3.476,0,0,1-1.063-2.5c0-.064.007-.127.008-.189h-7.654a1.343,1.343,0,0,0,0,2.686Zm.807-2.2a.855.855,0,1,1-.855.855A.854.854,0,0,1,2850.632,1521.883Z" fill="#ec7165"/>
      <path id="Tracé_691" data-name="Tracé 691" d="M2861.438,1525.012a3.58,3.58,0,0,1-.5.04,3.469,3.469,0,0,1-1.629-.408v.034h-9.483a1.343,1.343,0,0,0,0,2.685h10.733a1.346,1.346,0,0,0,1.2-1.938A1.393,1.393,0,0,0,2861.438,1525.012Zm-10.806,1.862a.854.854,0,1,1,.853-.854A.854.854,0,0,1,2850.632,1526.874Z" fill="#ec7165"/>
      <path id="Tracé_692" data-name="Tracé 692" d="M2860.937,1518.718a2.868,2.868,0,1,0,2.869,2.867A2.871,2.871,0,0,0,2860.937,1518.718Zm-.519,4.258a.307.307,0,0,1-.205.081h-.023a.3.3,0,0,1-.212-.114l-1.044-1.333.469-.369.843,1.076,2.188-2.052.409.435Z" fill="#ec7165"/>
    </g>
  </g>
</svg>
