<svg xmlns="http://www.w3.org/2000/svg" width="24" height="21.135" viewBox="0 0 24 21.135">
  <g id="Groupe_1453" data-name="Groupe 1453" transform="translate(-196 -1789)">
    <rect id="Rectangle_3494" data-name="Rectangle 3494" width="24" height="21" transform="translate(196 1789)" fill="none"/>
    <g id="Groupe_1446" data-name="Groupe 1446" transform="translate(-2039.026 433.19)">
      <rect id="Rectangle_2582" data-name="Rectangle 2582" width="1.026" height="1.026" transform="translate(2243.482 1371.126)" fill="#ec7165"/>
      <rect id="Rectangle_2583" data-name="Rectangle 2583" width="1.026" height="1.026" transform="translate(2246.616 1371.126)" fill="#ec7165"/>
      <rect id="Rectangle_2584" data-name="Rectangle 2584" width="1.026" height="1.026" transform="translate(2246.616 1374.374)" fill="#ec7165"/>
      <rect id="Rectangle_2585" data-name="Rectangle 2585" width="1.026" height="1.026" transform="translate(2243.482 1374.374)" fill="#ec7165"/>
      <path id="Tracé_693" data-name="Tracé 693" d="M2247.979,1368.2c.766,0,1.985-1.4,1.985-2.559v-1.157a3.671,3.671,0,0,1-1.986-.661,3.865,3.865,0,0,1-1.985.656v1.163C2245.994,1366.807,2247.213,1368.2,2247.979,1368.2Z" transform="translate(-0.892 -0.454)" fill="#ec7165"/>
      <path id="Tracé_694" data-name="Tracé 694" d="M2247.564,1369.356c1.469,0,3.418-2.479,3.418-4.349v-2.062a5.779,5.779,0,0,1-3.418-1.135,6.086,6.086,0,0,1-3.417,1.129v2.067C2244.147,1366.877,2246.095,1369.356,2247.564,1369.356Zm-2.585-5.92.3,0a3.332,3.332,0,0,0,2.068-.677l.213-.212.212.212a3.135,3.135,0,0,0,2.06.677l.314-.014v1.766c0,1.417-1.426,3.158-2.586,3.158s-2.585-1.742-2.585-3.158Z" transform="translate(-0.477)" fill="#ec7165"/>
      <rect id="Rectangle_2586" data-name="Rectangle 2586" width="1.026" height="1.026" transform="translate(2249.667 1371.126)" fill="#ec7165"/>
      <rect id="Rectangle_2587" data-name="Rectangle 2587" width="1.026" height="1.026" transform="translate(2249.667 1374.374)" fill="#ec7165"/>
      <path id="Tracé_695" data-name="Tracé 695" d="M2249.533,1370.558a2.873,2.873,0,0,1-4.891,0h-2.616v8.355h10.122v-8.355Zm-4.43,7.405h-2.217v-2.217h2.217Zm0-3.248h-2.217V1372.5h2.217Zm3.135,3.248h-2.217v-2.217h2.217Zm0-3.248h-2.217V1372.5h2.217Zm3.049,3.248h-2.217v-2.217h2.217Zm0-3.248h-2.217V1372.5h2.217Z" transform="translate(0 -1.968)" fill="#ec7165"/>
    </g>
  </g>
</svg>
