<svg xmlns="http://www.w3.org/2000/svg" width="18.326" height="14.457" viewBox="0 0 18.326 14.457">
  <g id="noun_dollar_banknotes_735467" data-name="noun_dollar banknotes_735467" transform="translate(-2.514 -12.491)">
    <g id="Groupe_1093" data-name="Groupe 1093" transform="translate(2.514 12.491)">
      <path id="Tracé_9731" data-name="Tracé 9731" d="M5.268,26.948H20.455a.387.387,0,0,0,.385-.385V18.718a.387.387,0,0,0-.385-.385H19.51l-1.792-5.57a.45.45,0,0,0-.193-.231.378.378,0,0,0-.289-.019L2.781,17.176a.382.382,0,0,0-.251.482l2.351,7.285v1.619A.387.387,0,0,0,5.268,26.948ZM17.082,13.36l1.6,4.972h-.366a.534.534,0,0,0-.019-.173l-.848-2.679a.378.378,0,0,0-.463-.251,1.14,1.14,0,0,1-1.388-.752.45.45,0,0,0-.193-.231.378.378,0,0,0-.289-.019l-9.54,3.064a.382.382,0,0,0-.251.482,1.091,1.091,0,0,1,.039.559h-.1a.387.387,0,0,0-.385.385v.366a2.106,2.106,0,0,1-.289.154.45.45,0,0,0-.231.193.378.378,0,0,0-.019.289l.54,1.677v1.021l-1.5-4.626ZM6.135,17.928,15,15.075a1.969,1.969,0,0,0,1.812.983l.655,2.043a1.946,1.946,0,0,0-.308.251H13.613a1.228,1.228,0,0,1-.039-.135h0A2.375,2.375,0,0,0,9.2,17.851a5.019,5.019,0,0,0-.193.482H6.135A1.424,1.424,0,0,0,6.135,17.928Zm3.758.27a1.489,1.489,0,0,1,.944-.79,1.437,1.437,0,0,1,.5-.077,1.636,1.636,0,0,1,.732.173,1.51,1.51,0,0,1,.752.829H9.816A1.106,1.106,0,0,1,9.893,18.2ZM20.05,26.177H5.653V19.1H20.069v7.073Z" transform="translate(-2.514 -12.491)" fill="#404040"/>
      <path id="Tracé_9732" data-name="Tracé 9732" d="M33.814,49.442a1.162,1.162,0,0,1-1.1-1.156.387.387,0,0,0-.385-.385h-10a.387.387,0,0,0-.385.385,1.16,1.16,0,0,1-1.156,1.156.387.387,0,0,0-.385.385v2.795a.387.387,0,0,0,.385.385,1.16,1.16,0,0,1,1.156,1.156.387.387,0,0,0,.385.385h10a.387.387,0,0,0,.385-.385,1.162,1.162,0,0,1,1.1-1.156.383.383,0,0,0,.366-.385V49.827A.383.383,0,0,0,33.814,49.442Zm-11.14,4.336a1.942,1.942,0,0,0-1.5-1.5v-2.1a1.942,1.942,0,0,0,1.5-1.5h9.309a1.907,1.907,0,0,0,1.426,1.484v2.159A1.935,1.935,0,0,0,31.983,53.8H22.674Z" transform="translate(-16.953 -41.076)" fill="#404040"/>
      <path id="Tracé_9733" data-name="Tracé 9733" d="M46.09,52.8a2.39,2.39,0,1,0,2.39,2.39A2.389,2.389,0,0,0,46.09,52.8Zm1.619,2.39a1.619,1.619,0,1,1-1.619-1.619A1.629,1.629,0,0,1,47.709,55.19Z" transform="translate(-35.762 -45.031)" fill="#404040"/>
    </g>
  </g>
</svg>
