<svg xmlns="http://www.w3.org/2000/svg" width="24" height="21" viewBox="0 0 24 21">
  <g id="Groupe_1391" data-name="Groupe 1391" transform="translate(226 6651)">
    <rect id="Rectangle_3470" data-name="Rectangle 3470" width="24" height="21" transform="translate(-226 -6651)" fill="none"/>
    <path id="Soustraction_18" data-name="Soustraction 18" d="M7.5,15A7.5,7.5,0,1,1,15,7.5,7.509,7.509,0,0,1,7.5,15Zm1.49-7.1h0l-.78.776.6.587A2.105,2.105,0,0,0,10.385,10H10.4a2.108,2.108,0,0,0,1.571-.724,2.716,2.716,0,0,0,.015-3.535A2.138,2.138,0,0,0,10.4,5l-.03,0a2.078,2.078,0,0,0-1.536.707L6.07,8.448a1.112,1.112,0,0,1-1.7,0,1.457,1.457,0,0,1,0-1.9,1.131,1.131,0,0,1,.85-.394H5.23a1.162,1.162,0,0,1,.866.413l.526.519L7.4,6.322l-.594-.584a2.066,2.066,0,0,0-3.153,0,2.713,2.713,0,0,0,0,3.529,2.068,2.068,0,0,0,3.13.028l2.76-2.74a1.112,1.112,0,0,1,1.7-.007,1.457,1.457,0,0,1,.007,1.9,1.145,1.145,0,0,1-.851.4h-.007a1.174,1.174,0,0,1-.869-.41L8.989,7.9Z" transform="translate(-222 -6645)" fill="#fff"/>
  </g>
</svg>
