<svg xmlns="http://www.w3.org/2000/svg" width="24" height="21" viewBox="0 0 24 21">
  <g id="Groupe_1390" data-name="Groupe 1390" transform="translate(337 6651)">
    <rect id="Rectangle_3465" data-name="Rectangle 3465" width="24" height="21" transform="translate(-337 -6651)" fill="none"/>
    <path id="ic_archive_24px" d="M17.617,4.858l-1.158-1.4A1.21,1.21,0,0,0,15.5,3H5.5a1.239,1.239,0,0,0-.967.458l-1.15,1.4A1.632,1.632,0,0,0,3,5.917V16.333A1.672,1.672,0,0,0,4.667,18H16.333A1.672,1.672,0,0,0,18,16.333V5.917A1.632,1.632,0,0,0,17.617,4.858ZM10.5,15.083,5.917,10.5H8.833V8.833h3.333V10.5h2.917ZM4.767,4.667l.675-.833h10l.783.833Z" transform="translate(-335 -6648)" fill="#fff"/>
  </g>
</svg>
