<svg xmlns="http://www.w3.org/2000/svg" width="24" height="21" viewBox="0 0 24 21">
  <g id="Groupe_1386" data-name="Groupe 1386" transform="translate(494 6715)">
    <rect id="Rectangle_3463" data-name="Rectangle 3463" width="24" height="21" transform="translate(-494 -6715)" fill="none"/>
    <path id="ic_group_work_24px" d="M9.5,2A7.5,7.5,0,1,0,17,9.5,7.5,7.5,0,0,0,9.5,2Zm-3,11.625A1.875,1.875,0,1,1,8.375,11.75,1.876,1.876,0,0,1,6.5,13.625ZM7.625,6.5A1.875,1.875,0,1,1,9.5,8.375,1.876,1.876,0,0,1,7.625,6.5ZM12.5,13.625a1.875,1.875,0,1,1,1.875-1.875A1.876,1.876,0,0,1,12.5,13.625Z" transform="translate(-491 -6711)" fill="#fff"/>
  </g>
</svg>
