<svg xmlns="http://www.w3.org/2000/svg" width="24" height="21" viewBox="0 0 24 21">
  <g id="Groupe_1426" data-name="Groupe 1426" transform="translate(-114 1920)">
    <rect id="Rectangle_3491" data-name="Rectangle 3491" width="24" height="21" transform="translate(114 -1920)" fill="none"/>
    <g id="Groupe_1423" data-name="Groupe 1423" transform="translate(-162 -2089)">
      <g id="Groupe_1130" data-name="Groupe 1130" transform="translate(282 175)">
        <path id="Tracé_656" data-name="Tracé 656" d="M1439.149,1024.926h5.16v2.365h-5.16Zm6.072,10.443a.643.643,0,0,1-.681.576h-5.62a.646.646,0,0,1-.683-.576v-4.846a1.7,1.7,0,0,1,.639-1.316,2.3,2.3,0,0,0,.772-1.377h4.161a2.311,2.311,0,0,0,.774,1.377,1.7,1.7,0,0,1,.637,1.316Zm-1.4-5.458h-4.185a.272.272,0,0,0-.192.079.268.268,0,0,0-.079.192v4.264a.268.268,0,0,0,.271.27h4.185a.267.267,0,0,0,.27-.27v-4.264a.268.268,0,0,0-.27-.27Z" transform="translate(-1438.237 -1024.926)" fill="#c477af"/>
      </g>
      <g id="Groupe_1129" data-name="Groupe 1129" transform="translate(291.619 180.969)">
        <rect id="Rectangle_2564" data-name="Rectangle 2564" width="0.876" height="5.051" transform="translate(0 0)" fill="#c477af"/>
      </g>
      <g id="Groupe_1128" data-name="Groupe 1128" transform="translate(290.221 177.966)">
        <path id="Tracé_609" data-name="Tracé 609" d="M3010.036,1891.931l-1.836,3.181h3.671Z" transform="translate(-3008.2 -1891.931)" fill="#c477af"/>
      </g>
      <path id="Tracé_657" data-name="Tracé 657" d="M3006.851,1900.443h-11.892V1898.1h11.892Z" transform="translate(-2712.959 -1710.608)" fill="#c477af"/>
    </g>
  </g>
</svg>
