<svg xmlns="http://www.w3.org/2000/svg" width="24" height="21" viewBox="0 0 24 21">
  <g id="Groupe_1443" data-name="Groupe 1443" transform="translate(-196 -958)">
    <rect id="Rectangle_3493" data-name="Rectangle 3493" width="24" height="21" transform="translate(196 958)" fill="none"/>
    <g id="Groupe_1437" data-name="Groupe 1437" transform="translate(24 799.973)">
      <g id="Groupe_1178" data-name="Groupe 1178" transform="translate(174 166.6)">
        <path id="Tracé_677" data-name="Tracé 677" d="M636,1223.039a.891.891,0,1,1,.892-.891A.891.891,0,0,1,636,1223.039Zm6.749,0a.891.891,0,1,1,.891-.891A.891.891,0,0,1,642.753,1223.039Zm2.829-10.418-2.443,6.523a.338.338,0,0,1-.316.218h-7.3a.192.192,0,0,1-.02,0h-1.285a.308.308,0,0,0-.27.275v.3a.269.269,0,0,0,.083.187.272.272,0,0,0,.187.085h10.05a.336.336,0,1,1,0,.672h-10.05a.956.956,0,0,1-.943-.943v-.3a.958.958,0,0,1,.943-.947h.8l-2.944-7.238h-2.556a.337.337,0,0,1,0-.673H632.3a.337.337,0,0,1,.312.209l.488,1.2,12.167-.018a.336.336,0,0,1,.315.453Z" transform="translate(-629.183 -1210.776)" fill="#ec7165"/>
        <path id="Tracé_678" data-name="Tracé 678" d="M636.4,1219.008h6.824l.013,0h.009l2.191-5.849-11.409.019Z" transform="translate(-629.834 -1211.097)" fill="#ec7165"/>
      </g>
      <g id="Groupe_1179" data-name="Groupe 1179" transform="translate(186.117 164.027)">
        <path id="ic_cancel_24px" d="M5.626,2A3.626,3.626,0,1,0,9.252,5.626,3.622,3.622,0,0,0,5.626,2Z" transform="translate(-1.31 -1.31)" fill="#fff"/>
        <path id="ic_cancel_24px-2" data-name="ic_cancel_24px" d="M6.315,2a4.315,4.315,0,1,0,4.315,4.315A4.312,4.312,0,0,0,6.315,2ZM8.473,7.865l-.608.608L6.315,6.924,4.766,8.473l-.608-.608L5.707,6.315,4.158,4.766l.608-.608L6.315,5.707,7.865,4.158l.608.608L6.924,6.315Z" transform="translate(-2 -2)" fill="#ec7165"/>
      </g>
    </g>
  </g>
</svg>
