<svg xmlns="http://www.w3.org/2000/svg" width="24" height="21.492" viewBox="0 0 24 21.492">
  <g id="Groupe_1444" data-name="Groupe 1444" transform="translate(-196 -984)">
    <rect id="Rectangle_3493" data-name="Rectangle 3493" width="24" height="21" transform="translate(196 984)" fill="none"/>
    <g id="Groupe_1438" data-name="Groupe 1438" transform="translate(-68 891)">
      <g id="Groupe_1184" data-name="Groupe 1184" transform="translate(-1733.886 -1571.751)">
        <path id="Tracé_675" data-name="Tracé 675" d="M2013.1,1678.385a2.577,2.577,0,0,0-1.873-.936h-8.1a2.572,2.572,0,0,0-1.873.936,6.969,6.969,0,0,0-1.371,3.528,6.876,6.876,0,0,0,1.241,3.375,2.515,2.515,0,0,0,1.861.955h8.385a2.511,2.511,0,0,0,1.86-.955,6.854,6.854,0,0,0,1.241-3.375A6.983,6.983,0,0,0,2013.1,1678.385Zm-4.2-3.669a1.482,1.482,0,1,0-1.481-1.482A1.485,1.485,0,0,0,2008.909,1674.716Zm0-2.224a.742.742,0,1,1-.741.742A.742.742,0,0,1,2008.909,1672.492Zm.03,4.076h3.553v-.741H2008.2l-1.765-1.766a1.538,1.538,0,1,0-.562.488l1.278,1.277h-5.281v.742h7.07Zm-3.736-2.593a.742.742,0,1,1,.742-.741A.742.742,0,0,1,2005.2,1673.975Z" fill="#ec7165"/>
      </g>
      <g id="Groupe_1185" data-name="Groupe 1185" transform="translate(277.583 100)">
        <path id="ic_cancel_24px" d="M5.626,2A3.626,3.626,0,1,0,9.252,5.626,3.622,3.622,0,0,0,5.626,2Z" transform="translate(-1.31 -1.31)" fill="#fff"/>
        <path id="ic_cancel_24px-2" data-name="ic_cancel_24px" d="M6.315,2a4.315,4.315,0,1,0,4.315,4.315A4.312,4.312,0,0,0,6.315,2ZM8.473,7.865l-.608.608L6.315,6.924,4.766,8.473l-.608-.608L5.707,6.315,4.158,4.766l.608-.608L6.315,5.707,7.865,4.158l.608.608L6.924,6.315Z" transform="translate(-2 -2)" fill="#ec7165"/>
      </g>
    </g>
  </g>
</svg>
