<svg xmlns="http://www.w3.org/2000/svg" width="24" height="21" viewBox="0 0 24 21">
  <g id="Groupe_1407" data-name="Groupe 1407" transform="translate(-108 4589)">
    <rect id="Rectangle_3483" data-name="Rectangle 3483" width="24" height="21" transform="translate(108 -4589)" fill="none"/>
    <g id="Groupe_1401" data-name="Groupe 1401" transform="translate(-2130.62 -6133.616)">
      <path id="Tracé_617" data-name="Tracé 617" d="M2240.62,1557.918v3.746a1.835,1.835,0,0,0,1.831,1.831h15.922a1.834,1.834,0,0,0,1.831-1.831v-3.749a16.023,16.023,0,0,1-9.79,3.249A15.8,15.8,0,0,1,2240.62,1557.918Z" transform="translate(0 1.942)" fill="#b7d47e"/>
      <path id="Tracé_618" data-name="Tracé 618" d="M2246.286,1551.042a.513.513,0,0,1,.51-.512h5.009a.514.514,0,0,1,.512.512v1.251h.915v-1.251a1.428,1.428,0,0,0-1.427-1.426H2246.8a1.429,1.429,0,0,0-1.428,1.426v1.251h.917Z" transform="translate(1.111 0)" fill="#b7d47e"/>
      <path id="Tracé_619" data-name="Tracé 619" d="M2258.373,1552.475h-15.922a1.834,1.834,0,0,0-1.831,1.831v3.7a15.382,15.382,0,0,0,19.584,0v-3.7A1.834,1.834,0,0,0,2258.373,1552.475Zm-7.6,6.964v.818h-.787v-.761a3.253,3.253,0,0,1-1.366-.345l.243-.939a2.834,2.834,0,0,0,1.331.353c.459,0,.771-.175.771-.5,0-.3-.256-.5-.852-.7-.859-.287-1.444-.688-1.444-1.467a1.482,1.482,0,0,1,1.355-1.429v-.763h.788v.706a2.872,2.872,0,0,1,1.164.265l-.232.907a2.665,2.665,0,0,0-1.156-.274c-.522,0-.69.226-.69.45,0,.264.28.433.962.69.955.338,1.34.78,1.34,1.5A1.537,1.537,0,0,1,2250.774,1559.439Z" transform="translate(0 0.669)" fill="#b7d47e"/>
    </g>
  </g>
</svg>
