<svg xmlns="http://www.w3.org/2000/svg" width="24" height="21" viewBox="0 0 24 21">
  <g id="Groupe_1401" data-name="Groupe 1401" transform="translate(-494 5830)">
    <rect id="Rectangle_3479" data-name="Rectangle 3479" width="24" height="21" transform="translate(494 -5830)" fill="none"/>
    <path id="Tracé_1076" data-name="Tracé 1076" d="M486.229,1865.689l-.2-.737a.151.151,0,0,0-.183-.106l-2.852.762-.7-.4.769-.207a.152.152,0,0,0,.107-.184l-.2-.737a.152.152,0,0,0-.183-.106l-1.8.482-.921-.53a1.753,1.753,0,0,0,0-.946l1.031-.594,1.623.435a.151.151,0,0,0,.184-.106l.2-.737a.146.146,0,0,0-.015-.114.152.152,0,0,0-.091-.07l-.6-.16.7-.4,2.676.717a.15.15,0,0,0,.183-.106l.2-.738a.152.152,0,0,0-.107-.184l-1.647-.441,1.163-.671a.152.152,0,0,0,.055-.205l-.381-.662a.155.155,0,0,0-.092-.07.145.145,0,0,0-.113.016l-1.275.735.489-1.822a.147.147,0,0,0-.016-.114.148.148,0,0,0-.091-.071l-.737-.2a.15.15,0,0,0-.183.106l-.764,2.85-.7.4.206-.771a.15.15,0,0,0-.106-.183l-.737-.2a.154.154,0,0,0-.184.106l-.482,1.8-.918.53a1.944,1.944,0,0,0-.819-.477V1860.4l1.188-1.188a.148.148,0,0,0,.044-.1.15.15,0,0,0-.044-.107l-.54-.539a.153.153,0,0,0-.212,0l-.436.436v-.806l1.957-1.959a.148.148,0,0,0,0-.211l-.54-.54a.149.149,0,0,0-.212,0l-1.2,1.205v-1.342a.15.15,0,0,0-.15-.15h-.764a.15.15,0,0,0-.15.15v1.471l-1.334-1.334a.148.148,0,0,0-.106-.044.15.15,0,0,0-.106.044l-.54.54a.148.148,0,0,0,0,.211l2.086,2.088v.805l-.564-.564a.152.152,0,0,0-.211,0l-.541.54a.152.152,0,0,0,0,.213l1.316,1.315v1.056a1.942,1.942,0,0,0-.818.478l-1.03-.594-.435-1.624a.146.146,0,0,0-.07-.091.147.147,0,0,0-.114-.016l-.723.195a.158.158,0,0,0-.071.032.147.147,0,0,0-.05.155l.16.6-.7-.4-.716-2.675a.148.148,0,0,0-.071-.091.145.145,0,0,0-.113-.016l-.722.2a.14.14,0,0,0-.055.02h0a.136.136,0,0,0-.03.024.151.151,0,0,0-.041.1h0v0a.15.15,0,0,0,.008.047l.439,1.639-1.164-.672a.149.149,0,0,0-.205.054l-.381.662a.145.145,0,0,0-.015.113.15.15,0,0,0,.069.092l1.275.735-1.823.488a.15.15,0,0,0-.1.184l.2.738a.147.147,0,0,0,.071.091.163.163,0,0,0,.113.016l2.849-.765.7.4-.77.207a.152.152,0,0,0-.091.07.149.149,0,0,0-.015.113l.2.738a.148.148,0,0,0,.07.092.156.156,0,0,0,.114.015l1.8-.483.921.532a1.833,1.833,0,0,0-.065.472,1.8,1.8,0,0,0,.066.473l-1.032.594-1.623-.435a.144.144,0,0,0-.114.016.148.148,0,0,0-.07.09l-.2.74a.15.15,0,0,0,.106.183l.6.158-.7.4-2.676-.717a.143.143,0,0,0-.114.016.138.138,0,0,0-.069.09l-.2.738a.151.151,0,0,0,.107.183l1.647.442-1.164.671a.15.15,0,0,0-.054.2l.381.661a.158.158,0,0,0,.091.071.163.163,0,0,0,.114-.016l1.274-.736-.487,1.822a.148.148,0,0,0,.105.184l.738.2a.156.156,0,0,0,.114-.013.154.154,0,0,0,.07-.092l.764-2.852.7-.4-.207.77a.15.15,0,0,0,.106.185l.739.2a.151.151,0,0,0,.114-.014.154.154,0,0,0,.069-.091l.482-1.8.918-.531a1.912,1.912,0,0,0,.819.477v1.186l-1.189,1.187a.151.151,0,0,0-.043.106.147.147,0,0,0,.043.106l.535.533a.144.144,0,0,0,.112.052h0a.144.144,0,0,0,.108-.048l.433-.433v.8l-1.958,1.958a.158.158,0,0,0-.044.107.15.15,0,0,0,.044.106l.54.54a.152.152,0,0,0,.213,0l1.205-1.206v1.343a.15.15,0,0,0,.15.15h.764a.15.15,0,0,0,.15-.15v-1.47l1.333,1.333a.15.15,0,0,0,.211,0l.542-.54a.15.15,0,0,0,.044-.106.158.158,0,0,0-.044-.107l-2.086-2.085v-.8l.563.563a.149.149,0,0,0,.212,0l.54-.54a.148.148,0,0,0,.044-.106.152.152,0,0,0-.044-.106l-1.315-1.316v-1.058a1.932,1.932,0,0,0,.819-.476l1.029.594.435,1.622a.151.151,0,0,0,.183.107l.739-.2a.149.149,0,0,0,.09-.071.145.145,0,0,0,.015-.113l-.16-.6.7.4.716,2.673a.151.151,0,0,0,.183.107l.739-.2a.15.15,0,0,0,.11-.165l-.007-.03-.438-1.636,1.163.671a.151.151,0,0,0,.114.015.156.156,0,0,0,.091-.07l.381-.662a.151.151,0,0,0-.055-.205l-1.273-.735,1.823-.488a.155.155,0,0,0,.091-.07A.152.152,0,0,0,486.229,1865.689Z" transform="translate(27.84 -7681.089)" fill="#69c2c6"/>
  </g>
</svg>
