<svg xmlns="http://www.w3.org/2000/svg" width="24" height="21.184" viewBox="0 0 24 21.184">
  <g id="Groupe_1926" data-name="Groupe 1926" transform="translate(5924 4544)">
    <rect id="Rectangle_3583" data-name="Rectangle 3583" width="24" height="21" transform="translate(-5924 -4544)" fill="none"/>
    <path id="Union_29" data-name="Union 29" d="M23.1,11.27l-.906.913-.9-.913-.9.913-.906-.913-.9.913-.9-.913-.906.913-.9-.913-.9.913-.9-.913-.906.913V0l.906.913L14.95,0l.9.913.9-.913.906.913L18.57,0l.9.913L20.38,0l.9.913.9-.913L23.1.915,24,0V12.183ZM14.95,9.138h7.239V7.92H14.95Zm0-2.438h7.239V5.483H14.95Zm0-2.436h7.239V3.046H14.95ZM4.281,11.784.394,7.862a1.354,1.354,0,0,1,0-1.91L6.085,0h4.977l1.007,1.015V6.092l-5.9,5.692a1.577,1.577,0,0,1-.987.4A1.431,1.431,0,0,1,4.281,11.784Zm.189-5.012h.559a2.548,2.548,0,0,0,.476,1.6,1.542,1.542,0,0,0,1.258.568,2.785,2.785,0,0,0,.785-.116l-.077-.618a1.836,1.836,0,0,1-.7.132A.863.863,0,0,1,6,7.927a2.153,2.153,0,0,1-.275-1.155h1.19V6.293H5.729v-.53h1.19V5.281H5.729a2.032,2.032,0,0,1,.3-1.14.878.878,0,0,1,.739-.371,1.955,1.955,0,0,1,.7.135l.077-.626a3.043,3.043,0,0,0-.788-.12,1.519,1.519,0,0,0-1.247.564,2.565,2.565,0,0,0-.484,1.558H4.469v.482h.559v.53H4.469ZM8.8,2.284A1.013,1.013,0,0,0,9.806,3.3a1.071,1.071,0,0,0,.292-.042.984.984,0,0,0,.672-.68,1.036,1.036,0,0,0-.166-.912,1,1,0,0,0-.8-.4A1.011,1.011,0,0,0,8.8,2.284Z" transform="translate(-5924 -4535)" fill="#b7d47e"/>
  </g>
</svg>
