<svg xmlns="http://www.w3.org/2000/svg" width="24" height="21" viewBox="0 0 24 21">
  <g id="Groupe_1408" data-name="Groupe 1408" transform="translate(-108 4556)">
    <rect id="Rectangle_3484" data-name="Rectangle 3484" width="24" height="21" transform="translate(108 -4556)" fill="none"/>
    <path id="Tracé_1074" data-name="Tracé 1074" d="M1760.2,1612.55a16.477,16.477,0,0,1,6.767-1.338h.124a16.528,16.528,0,0,1,6.856,1.338c1.75.823,2.71,1.92,2.7,2.973.015,1.053-.946,2.151-2.7,2.973a16.56,16.56,0,0,1-6.873,1.337,19.113,19.113,0,0,1-4.3-.475v-.027h-.114a12.874,12.874,0,0,1-2.455-.835c-1.745-.822-2.7-1.914-2.694-2.966v-.015C1757.495,1614.465,1758.454,1613.371,1760.2,1612.55Zm11.479,7.528v5.189a17.576,17.576,0,0,1-2.459.43v-5.2A18.587,18.587,0,0,0,1771.677,1620.079Zm-6.452.443v5.206a18.016,18.016,0,0,1-2.457-.392v-5.188A19.417,19.417,0,0,0,1765.225,1620.521Zm-7.72.98v-4.026a5.655,5.655,0,0,0,1.269,1.1v5.026A2.792,2.792,0,0,1,1757.505,1621.5Zm2.038,2.628v-5.1c.106.056.215.111.328.163a13.252,13.252,0,0,0,2.129.766v5.177a11.9,11.9,0,0,1-1.8-.663C1759.964,1624.363,1759.747,1624.249,1759.543,1624.13Zm6.449,1.654v-5.206c.356.017.715.027,1.08.027.468,0,.925-.019,1.377-.05v5.207c-.451.031-.907.051-1.377.051C1766.708,1625.812,1766.349,1625.8,1765.993,1625.783Zm7.953-1.311a11.247,11.247,0,0,1-1.5.577v-5.178a12.886,12.886,0,0,0,1.832-.679q.325-.155.627-.326v5.073A7.875,7.875,0,0,1,1773.945,1624.473Zm1.725-1.121v-4.816h-.234a5.587,5.587,0,0,0,1.2-1.06v4.026A2.569,2.569,0,0,1,1775.671,1623.352Z" transform="translate(-1647.505 -6161.212)" fill="#b7d47e"/>
  </g>
</svg>
