<svg xmlns="http://www.w3.org/2000/svg" width="24" height="21.357" viewBox="0 0 24 21.357">
  <g id="Groupe_1403" data-name="Groupe 1403" transform="translate(-558 5830)">
    <rect id="Rectangle_3481" data-name="Rectangle 3481" width="24" height="21" transform="translate(558 -5830)" fill="none"/>
    <path id="Tracé_1077" data-name="Tracé 1077" d="M20.137,9.779H2.96a1.16,1.16,0,0,0-1.16,1.16V22.976a1.16,1.16,0,0,0,1.16,1.16H20.137a1.16,1.16,0,0,0,1.16-1.16V10.939A1.16,1.16,0,0,0,20.137,9.779Zm-15.6,12.6H3.444V11.539H4.533Zm1.283,0H4.909V11.539h.907ZM7.45,20.937H6.193v-9.4H7.45Zm1.283,0H7.826v-9.4h.907Zm1.283,0H9.109v-9.4h.907Zm1.914,0H10.393v-9.4h1.538Zm1.283,0h-.907v-9.4h.907Zm1.914,0H13.591v-9.4h1.538Zm1.115,0h-.739v-9.4h.739Zm1.059,0H16.62v-9.4H17.3Zm1.067,1.439h-.692V11.539h.692Zm1.283,0h-.908V11.539h.908Z" transform="translate(558.2 -5832.779)" fill="#69c2c6"/>
  </g>
</svg>
