<svg xmlns="http://www.w3.org/2000/svg" width="24" height="21.079" viewBox="0 0 24 21.079">
  <g id="Groupe_1399" data-name="Groupe 1399" transform="translate(-430 5830)">
    <rect id="Rectangle_3477" data-name="Rectangle 3477" width="24" height="21" transform="translate(430 -5830)" fill="none"/>
    <g id="Groupe_1390" data-name="Groupe 1390" transform="translate(61 -5986)">
      <g id="Groupe_1103" data-name="Groupe 1103" transform="translate(376.668 161)">
        <path id="Tracé_577" data-name="Tracé 577" d="M2929.353,2008.824l3.581,1.87-3.581,1.86-3.582-1.86Zm-3.89,2.327,3.616,1.879v4.094l-3.616-1.878Zm7.78,4.094-3.615,1.878v-4.094l3.615-1.879Z" transform="translate(-2925.463 -2008.824)" fill="#69c2c6"/>
      </g>
      <g id="Groupe_1105" data-name="Groupe 1105" transform="translate(372 168.78)">
        <path id="Tracé_577-2" data-name="Tracé 577" d="M2929.353,2008.824l3.581,1.87-3.581,1.86-3.582-1.86Zm-3.89,2.327,3.616,1.879v4.094l-3.616-1.878Zm7.78,4.094-3.615,1.878v-4.094l3.615-1.879Z" transform="translate(-2925.463 -2008.824)" fill="#69c2c6"/>
      </g>
      <g id="Groupe_1104" data-name="Groupe 1104" transform="translate(381.337 168.78)">
        <path id="Tracé_577-3" data-name="Tracé 577" d="M2929.353,2008.824l3.581,1.87-3.581,1.86-3.582-1.86Zm-3.89,2.327,3.616,1.879v4.094l-3.616-1.878Zm7.78,4.094-3.615,1.878v-4.094l3.615-1.879Z" transform="translate(-2925.463 -2008.824)" fill="#69c2c6"/>
      </g>
    </g>
  </g>
</svg>
