<svg xmlns="http://www.w3.org/2000/svg" width="24" height="21" viewBox="0 0 24 21">
  <g id="Groupe_1925" data-name="Groupe 1925" transform="translate(5968 4544)">
    <rect id="Rectangle_3582" data-name="Rectangle 3582" width="24" height="21" transform="translate(-5968 -4544)" fill="none"/>
    <path id="Union_28" data-name="Union 28" d="M14.836,11V9.775H24V11Zm-2.618,0V9.775h1.309V11ZM3.9,10.636.359,7.1a1.215,1.215,0,0,1,0-1.724L5.544,0H10.08L11,.916V5.5L5.624,10.636a1.444,1.444,0,0,1-.9.357A1.31,1.31,0,0,1,3.9,10.636Zm.172-4.523h.51a2.288,2.288,0,0,0,.433,1.444,1.41,1.41,0,0,0,1.146.512,2.533,2.533,0,0,0,.715-.1l-.069-.558a1.689,1.689,0,0,1-.639.119.791.791,0,0,1-.7-.372A1.946,1.946,0,0,1,5.22,6.113H6.306V5.68H5.22V5.2H6.306V4.766H5.22a1.818,1.818,0,0,1,.272-1.029A.8.8,0,0,1,6.166,3.4a1.786,1.786,0,0,1,.641.122l.069-.565a2.763,2.763,0,0,0-.718-.108,1.387,1.387,0,0,0-1.135.509,2.287,2.287,0,0,0-.441,1.405h-.51V5.2h.51V5.68h-.51ZM8.018,2.062a.918.918,0,0,0,.916.916A.966.966,0,0,0,9.2,2.941a.888.888,0,0,0,.613-.613.917.917,0,1,0-1.795-.266Zm6.818,6.491V7.332H24V8.553Zm-2.618,0V7.332h1.309V8.553ZM14.836,6.11V4.887H24V6.11Zm-2.618,0V4.887h1.309V6.11Zm2.618-2.445V2.444H24V3.665Zm-2.618,0V2.444h1.309V3.665Zm2.618-2.444V0H24V1.222Zm-2.618,0V0h1.309V1.222Z" transform="translate(-5968 -4534)" fill="#ec7165"/>
  </g>
</svg>
