<svg xmlns="http://www.w3.org/2000/svg" width="24" height="21" viewBox="0 0 24 21">
  <g id="Groupe_1928" data-name="Groupe 1928" transform="translate(5838 4544)">
    <rect id="Rectangle_3585" data-name="Rectangle 3585" width="24" height="21" transform="translate(-5838 -4544)" fill="none"/>
    <path id="Union_32" data-name="Union 32" d="M14.835,11V9.775H24V11Zm-2.618,0V9.775h1.309V11ZM3.9,10.636.358,7.1a1.215,1.215,0,0,1,0-1.724L5.542,0h4.535L11,.916V5.5L5.623,10.636a1.443,1.443,0,0,1-.9.357A1.309,1.309,0,0,1,3.9,10.636ZM5.927,6a1.089,1.089,0,0,0-.262.758v.258a1.107,1.107,0,0,0,.26.768.89.89,0,0,0,.7.289.888.888,0,0,0,.695-.287,1.1,1.1,0,0,0,.255-.755V6.775A1.112,1.112,0,0,0,7.313,6a.906.906,0,0,0-.695-.284A.9.9,0,0,0,5.927,6Zm-1.6,1.358.467.265,2.086-3.97-.472-.265ZM3.92,3.144a1.114,1.114,0,0,0-.257.758v.247a1.11,1.11,0,0,0,.264.777.9.9,0,0,0,.693.286.885.885,0,0,0,.691-.286,1.089,1.089,0,0,0,.258-.757V3.915a1.121,1.121,0,0,0-.26-.776.9.9,0,0,0-.7-.287A.874.874,0,0,0,3.92,3.144Zm4.1-1.082a.919.919,0,0,0,.917.917A1.009,1.009,0,0,0,9.2,2.942a.9.9,0,0,0,.612-.614A.929.929,0,0,0,9.661,1.5a.916.916,0,0,0-1.644.558Zm6.819,6.491V7.331H24V8.553Zm-2.618,0V7.331h1.309V8.553ZM6.4,7.358a.552.552,0,0,1-.093-.328v-.2c0-.354.1-.533.307-.533a.26.26,0,0,1,.225.128.581.581,0,0,1,.086.332v.318c-.009.276-.111.416-.3.416A.266.266,0,0,1,6.4,7.358ZM14.835,6.11V4.887H24V6.11Zm-2.618,0V4.887h1.309V6.11ZM4.4,4.5a.552.552,0,0,1-.089-.333V3.911a.628.628,0,0,1,.084-.344.255.255,0,0,1,.223-.13.26.26,0,0,1,.227.13.608.608,0,0,1,.084.334v.257a.631.631,0,0,1-.081.338.252.252,0,0,1-.222.13A.265.265,0,0,1,4.4,4.5Zm10.44-.838V2.443H24V3.665Zm-2.618,0V2.443h1.309V3.665Zm2.618-2.443V0H24V1.222Zm-2.618,0V0h1.309V1.222Z" transform="translate(-5837.999 -4534)" fill="#ec7165"/>
  </g>
</svg>
