<svg xmlns="http://www.w3.org/2000/svg" width="15" height="13.125" viewBox="0 0 15 13.125">
  <path id="Exclusion_1" data-name="Exclusion 1" d="M5.183,13.125h0L3.894,11.131l-2.462-.515L1.665,8.3,0,6.561,1.665,4.809,1.432,2.5l2.462-.508L5.183,0,7.5.916,9.817,0l1.289,1.994,2.461.515-.23,2.307L15,6.561,13.338,8.3l.23,2.307-2.461.515L9.817,13.118,7.5,12.2l-2.317.922ZM8.958,7a1.315,1.315,0,0,0-.976.377,1.345,1.345,0,0,0-.371.987V8.7a1.385,1.385,0,0,0,.366,1,1.311,1.311,0,0,0,.994.376A1.3,1.3,0,0,0,9.951,9.7a1.364,1.364,0,0,0,.361-.983V8.39A1.368,1.368,0,0,0,9.94,7.376,1.332,1.332,0,0,0,8.958,7ZM8.667,3.98h0L5.721,9.147l.661.345L9.335,4.325,8.667,3.98Zm-2.546-.7a1.3,1.3,0,0,0-.981.381,1.359,1.359,0,0,0-.361.985v.323a1.366,1.366,0,0,0,.373,1.012,1.331,1.331,0,0,0,.979.372,1.309,1.309,0,0,0,.976-.372A1.343,1.343,0,0,0,7.472,5V4.667A1.378,1.378,0,0,0,7.1,3.656,1.324,1.324,0,0,0,6.12,3.282ZM8.97,9.321a.381.381,0,0,1-.315-.173.687.687,0,0,1-.131-.426V8.463c0-.461.146-.695.434-.695a.379.379,0,0,1,.32.165.728.728,0,0,1,.121.434v.412C9.386,9.139,9.243,9.321,8.97,9.321ZM6.13,5.594a.39.39,0,0,1-.32-.164A.692.692,0,0,1,5.684,5V4.662A.792.792,0,0,1,5.8,4.213a.371.371,0,0,1,.317-.169.364.364,0,0,1,.32.169.736.736,0,0,1,.119.435v.337a.756.756,0,0,1-.116.439A.363.363,0,0,1,6.13,5.594Z" fill="#b7d47e"/>
</svg>
