<svg xmlns="http://www.w3.org/2000/svg" width="13" height="13" viewBox="0 0 13 13">
  <g id="Groupe_1032" data-name="Groupe 1032" transform="translate(0 -0.5)">
    <circle id="Ellipse_2" data-name="Ellipse 2" cx="6.5" cy="6.5" r="6.5" transform="translate(0 0.5)" fill="#b7d47e"/>
    <g id="noun_Restaurant_1983116" transform="translate(4.358 3.351)">
      <g id="Groupe_1031" data-name="Groupe 1031" transform="translate(0)">
        <path id="Tracé_9724" data-name="Tracé 9724" d="M156.247,0a1.173,1.173,0,0,0-1.2,1.053L155,3.217a.569.569,0,0,0,.372.5l-.022,2.47a.437.437,0,0,0,.46.4.417.417,0,0,0,.438-.4Z" transform="translate(-152.327)" fill="#fff" fill-rule="evenodd"/>
        <path id="Tracé_9725" data-name="Tracé 9725" d="M.991,12.471H.707a.4.4,0,0,1-.394-.364L.466,8.546c-.7-.1-.612-.674-.613-1.149A4.12,4.12,0,0,1,.16,6.019L.378,6,.466,7.455H.619L.707,6H.991l.088,1.455h.153L1.319,6l.219.019A6.886,6.886,0,0,1,1.844,7.4c.007.279.088,1.053-.613,1.149l.153,3.561A.4.4,0,0,1,.991,12.471Z" transform="translate(0.15 -5.885)" fill="#fff" fill-rule="evenodd"/>
      </g>
    </g>
  </g>
</svg>
