<svg id="Groupe_7" data-name="Groupe 7" xmlns="http://www.w3.org/2000/svg" width="13.614" height="13.11" viewBox="0 0 13.614 13.11">
  <path id="ic_play_circle_filled_24px" d="M7.042,2a5.042,5.042,0,1,0,5.042,5.042A5.044,5.044,0,0,0,7.042,2ZM6.034,9.311V4.773L9.059,7.042Z" transform="translate(-2 -2)" fill="#b7d47e"/>
  <g id="Tracé_76" data-name="Tracé 76" transform="translate(6.555 6.051)" fill="#c80009">
    <path d="M 3.529512405395508 6.559022426605225 C 1.859032392501831 6.559022426605225 0.500002384185791 5.199992179870605 0.500002384185791 3.529512405395508 C 0.500002384185791 1.859032392501831 1.859032392501831 0.500002384185791 3.529512405395508 0.500002384185791 C 5.199992179870605 0.500002384185791 6.559022426605225 1.859032392501831 6.559022426605225 3.529512405395508 C 6.559022426605225 5.199992179870605 5.199992179870605 6.559022426605225 3.529512405395508 6.559022426605225 Z" stroke="none"/>
    <path d="M 3.529512405395508 1.000002384185791 C 2.134732246398926 1.000002384185791 1.000002384185791 2.134732246398926 1.000002384185791 3.529512405395508 C 1.000002384185791 4.92429256439209 2.134732246398926 6.059022426605225 3.529512405395508 6.059022426605225 C 4.92429256439209 6.059022426605225 6.059022426605225 4.92429256439209 6.059022426605225 3.529512405395508 C 6.059022426605225 2.134732246398926 4.92429256439209 1.000002384185791 3.529512405395508 1.000002384185791 M 3.529512405395508 2.384185791015625e-06 C 5.478812217712402 2.384185791015625e-06 7.059022426605225 1.580212593078613 7.059022426605225 3.529512405395508 C 7.059022426605225 5.478812217712402 5.478812217712402 7.059022426605225 3.529512405395508 7.059022426605225 C 1.580212593078613 7.059022426605225 2.384185791015625e-06 5.478812217712402 2.384185791015625e-06 3.529512405395508 C 2.384185791015625e-06 1.580212593078613 1.580212593078613 2.384185791015625e-06 3.529512405395508 2.384185791015625e-06 Z" stroke="none" fill="#fff"/>
  </g>
  <path id="Tracé_77" data-name="Tracé 77" d="M.873-4.572h.313a.326.326,0,0,0,.372-.364.315.315,0,0,0-.089-.231.336.336,0,0,0-.25-.09.36.36,0,0,0-.229.077.234.234,0,0,0-.1.191H.229a.679.679,0,0,1,.126-.4A.832.832,0,0,1,.7-5.67a1.2,1.2,0,0,1,.491-.1,1.174,1.174,0,0,1,.752.219.727.727,0,0,1,.274.6.606.606,0,0,1-.113.35.807.807,0,0,1-.33.267.771.771,0,0,1,.358.251.661.661,0,0,1,.13.417.74.74,0,0,1-.3.615,1.226,1.226,0,0,1-.776.23,1.272,1.272,0,0,1-.523-.107.819.819,0,0,1-.365-.3.773.773,0,0,1-.124-.432H.851a.3.3,0,0,0,.106.228.375.375,0,0,0,.262.1.393.393,0,0,0,.28-.1.326.326,0,0,0,.1-.249A.381.381,0,0,0,1.5-3.987a.453.453,0,0,0-.3-.091H.873Z" transform="translate(8.985 13.953)" fill="#fff"/>
</svg>
