<svg xmlns="http://www.w3.org/2000/svg" width="13" height="13" viewBox="0 0 13 13">
  <g id="Groupe_1470" data-name="Groupe 1470" transform="translate(0 -0.375)">
    <circle id="Ellipse_4" data-name="Ellipse 4" cx="6.5" cy="6.5" r="6.5" transform="translate(0 0.375)" fill="#b7d47e"/>
    <g id="noun_coin_stack_2054306" data-name="noun_coin stack_2054306" transform="translate(1.999 3.5)">
      <g id="_05._Pennies" data-name="05. Pennies">
        <path id="Tracé_9753" data-name="Tracé 9753" d="M13.3,12.891a3.031,3.031,0,0,0-.9.138v-1.4c0-.613-2.426-.63-2.7-.63s-2.7.018-2.7.63v4.729c0,.613,2.426.63,2.7.63a12.213,12.213,0,0,0,1.642-.112,2.988,2.988,0,0,0,3.269.445,2.26,2.26,0,0,0,1.308-2.659A2.663,2.663,0,0,0,13.3,12.891Zm0,4.413a2.21,2.21,0,0,1-2.342-2.049A2.21,2.21,0,0,1,13.3,13.207a2.21,2.21,0,0,1,2.342,2.049A2.213,2.213,0,0,1,13.3,17.3ZM9.7,14.152q.629,0,1.255-.063a2.179,2.179,0,0,0-.289.656c-.284.023-.606.037-.966.037a5.354,5.354,0,0,1-2.342-.329v-.584A8.509,8.509,0,0,0,9.7,14.152Zm0,.946c.1,0,.473,0,.912-.033-.006.063-.011.126-.011.191a2.077,2.077,0,0,0,.048.437c-.28.022-.6.036-.949.036A5.354,5.354,0,0,1,7.36,15.4v-.584A8.509,8.509,0,0,0,9.7,15.1Zm1.536-1.362a10.55,10.55,0,0,1-1.536.1,5.354,5.354,0,0,1-2.342-.329v-.584a8.509,8.509,0,0,0,2.342.283,8.509,8.509,0,0,0,2.342-.283v.243a2.684,2.684,0,0,0-.806.57ZM9.7,12.261a8.509,8.509,0,0,0,2.342-.283v.584a5.354,5.354,0,0,1-2.342.329,5.354,5.354,0,0,1-2.342-.329v-.584A8.509,8.509,0,0,0,9.7,12.261Zm0-.315a5.739,5.739,0,0,1-2.325-.315A5.74,5.74,0,0,1,9.7,11.315a5.74,5.74,0,0,1,2.325.315A5.739,5.739,0,0,1,9.7,11.946ZM7.36,15.761a8.509,8.509,0,0,0,2.342.283c.108,0,.547,0,1.04-.043a2.254,2.254,0,0,0,.338.594,11.016,11.016,0,0,1-1.378.08,5.354,5.354,0,0,1-2.342-.329Z" transform="translate(-7 -11)" fill="#fff" stroke="#fff" stroke-width="0.1"/>
        <path id="Tracé_9754" data-name="Tracé 9754" d="M32.472,41.225a1.446,1.446,0,0,1-.48-.59.189.189,0,0,0-.232-.092.153.153,0,0,0-.1.2,1.766,1.766,0,0,0,.586.72.2.2,0,0,0,.254-.02.144.144,0,0,0-.023-.222Z" transform="translate(-27.205 -35.878)" fill="#fff" stroke="#fff" stroke-width="0.1"/>
        <path id="Tracé_9755" data-name="Tracé 9755" d="M48.278,30.067a1.766,1.766,0,0,0-.586-.72.2.2,0,0,0-.254.02.144.144,0,0,0,.023.222,1.446,1.446,0,0,1,.48.59.181.181,0,0,0,.169.1.2.2,0,0,0,.064-.01A.153.153,0,0,0,48.278,30.067Z" transform="translate(-40.119 -26.424)" fill="#fff" stroke="#fff" stroke-width="0.1"/>
        <path id="Tracé_9756" data-name="Tracé 9756" d="M38.4,30.728c0-.145.116-.238.317-.238a.323.323,0,0,1,.237.078.242.242,0,0,1,.083.209H39.4a.569.569,0,0,0-.55-.559V30h-.289v.22a.535.535,0,0,0-.525.5c0,.6,1.032.626,1.032,1.029a.255.255,0,0,1-.1.212.338.338,0,0,1-.251.067.354.354,0,0,1-.264-.08.265.265,0,0,1-.1-.23H38a.585.585,0,0,0,.567.586v.217h.289V32.3a.586.586,0,0,0,.585-.551C39.436,31.125,38.4,31.125,38.4,30.728Z" transform="translate(-32.411 -27.005)" fill="#fff" stroke="#fff" stroke-width="0.1"/>
      </g>
    </g>
  </g>
</svg>
