<svg id="Groupe_8" data-name="Groupe 8" xmlns="http://www.w3.org/2000/svg" width="14.491" height="13.051" viewBox="0 0 14.491 13.051">
  <path id="ic_pause_circle_filled_24px" d="M7.5,2A5.5,5.5,0,1,0,13,7.5,5.5,5.5,0,0,0,7.5,2ZM6.95,9.7H5.85V5.3h1.1Zm2.2,0H8.05V5.3h1.1Z" transform="translate(-2 -2)" fill="#b7d47e"/>
  <g id="Tracé_80" data-name="Tracé 80" transform="translate(7.491 6.051)" fill="#c80009">
    <path d="M 3.5 6.5 C 1.845790028572083 6.5 0.5 5.154210090637207 0.5 3.5 C 0.5 1.845790028572083 1.845790028572083 0.5 3.5 0.5 C 5.154210090637207 0.5 6.5 1.845790028572083 6.5 3.5 C 6.5 5.154210090637207 5.154210090637207 6.5 3.5 6.5 Z" stroke="none"/>
    <path d="M 3.5 1 C 2.121500015258789 1 1 2.121500015258789 1 3.5 C 1 4.878499984741211 2.121500015258789 6 3.5 6 C 4.878499984741211 6 6 4.878499984741211 6 3.5 C 6 2.121500015258789 4.878499984741211 1 3.5 1 M 3.5 0 C 5.433000087738037 0 7 1.566999912261963 7 3.5 C 7 5.433000087738037 5.433000087738037 7 3.5 7 C 1.566999912261963 7 0 5.433000087738037 0 3.5 C 0 1.566999912261963 1.566999912261963 0 3.5 0 Z" stroke="none" fill="#fff"/>
  </g>
  <path id="Tracé_81" data-name="Tracé 81" d="M.971-4.572h.358q.425,0,.425-.364a.3.3,0,0,0-.1-.231.417.417,0,0,0-.286-.09.451.451,0,0,0-.262.077.226.226,0,0,0-.111.191H.235a.623.623,0,0,1,.144-.4.941.941,0,0,1,.4-.277,1.535,1.535,0,0,1,.562-.1,1.48,1.48,0,0,1,.86.219.694.694,0,0,1,.313.6.556.556,0,0,1-.129.35.908.908,0,0,1-.377.267.89.89,0,0,1,.41.251.607.607,0,0,1,.149.417.711.711,0,0,1-.338.615,1.545,1.545,0,0,1-.887.23,1.633,1.633,0,0,1-.6-.107.921.921,0,0,1-.418-.3.7.7,0,0,1-.142-.432H.947a.285.285,0,0,0,.122.228.466.466,0,0,0,.3.1.49.49,0,0,0,.32-.1.308.308,0,0,0,.119-.249.356.356,0,0,0-.124-.307.569.569,0,0,0-.342-.091H.971Z" transform="translate(9.625 13.953)" fill="#fff"/>
</svg>
