<svg xmlns="http://www.w3.org/2000/svg" width="24" height="21" viewBox="0 0 24 21">
  <g id="Groupe_1414" data-name="Groupe 1414" transform="translate(-800 7581)">
    <rect id="Rectangle_3490" data-name="Rectangle 3490" width="24" height="21" transform="translate(800 -7581)" fill="none"/>
    <path id="ic_block_24px" d="M9.5,2A7.5,7.5,0,1,0,17,9.5,7.5,7.5,0,0,0,9.5,2Zm-6,7.5a6,6,0,0,1,6-6,5.927,5.927,0,0,1,3.675,1.267L4.767,13.175A5.927,5.927,0,0,1,3.5,9.5Zm6,6a5.927,5.927,0,0,1-3.675-1.267l8.408-8.408A5.927,5.927,0,0,1,15.5,9.5,6,6,0,0,1,9.5,15.5Z" transform="translate(803 -7577)" fill="#b7d47d"/>
  </g>
</svg>
