<svg xmlns="http://www.w3.org/2000/svg" width="24" height="21" viewBox="0 0 24 21">
  <g id="Groupe_1387" data-name="Groupe 1387" transform="translate(226 6785)">
    <rect id="Rectangle_3472" data-name="Rectangle 3472" width="24" height="21" transform="translate(-226 -6785)" fill="none"/>
    <path id="ic_account_circle_24px" d="M9.5,2A7.5,7.5,0,1,0,17,9.5,7.5,7.5,0,0,0,9.5,2Zm0,2.25A2.25,2.25,0,1,1,7.25,6.5,2.247,2.247,0,0,1,9.5,4.25Zm0,10.65A5.4,5.4,0,0,1,5,12.485c.022-1.493,3-2.31,4.5-2.31s4.477.818,4.5,2.31A5.4,5.4,0,0,1,9.5,14.9Z" transform="translate(-223 -6781)" fill="#fff"/>
  </g>
</svg>
