<svg xmlns="http://www.w3.org/2000/svg" width="24" height="21" viewBox="0 0 24 21">
  <g id="Groupe_1389" data-name="Groupe 1389" transform="translate(226 6709)">
    <rect id="Rectangle_3471" data-name="Rectangle 3471" width="24" height="21" transform="translate(-226 -6709)" fill="none"/>
    <path id="ic_receipt_24px" d="M14.25,13.25h-9v-1.5h9Zm0-3h-9V8.75h9Zm0-3h-9V5.75h9ZM3,17l1.125-1.125L5.25,17l1.125-1.125L7.5,17l1.125-1.125L9.75,17l1.125-1.125L12,17l1.125-1.125L14.25,17l1.125-1.125L16.5,17V2L15.375,3.125,14.25,2,13.125,3.125,12,2,10.875,3.125,9.75,2,8.625,3.125,7.5,2,6.375,3.125,5.25,2,4.125,3.125,3,2Z" transform="translate(-224 -6705)" fill="#fff"/>
  </g>
</svg>
