<svg xmlns="http://www.w3.org/2000/svg" width="24" height="21" viewBox="0 0 24 21">
  <g id="Groupe_1394" data-name="Groupe 1394" transform="translate(337 6518)">
    <rect id="Rectangle_3467" data-name="Rectangle 3467" width="24" height="21" transform="translate(-337 -6518)" fill="none"/>
    <g id="Groupe_1383" data-name="Groupe 1383" transform="translate(-331 -6511.999)">
      <path id="Union_3" data-name="Union 3" d="M4.347,15a1.365,1.365,0,0,1-1.363-1.364V11.591H4.347v.681h6.818V2.728H4.347v.681H2.984V1.364A1.365,1.365,0,0,1,4.347,0l6.818.007a1.362,1.362,0,0,1,1.363,1.357V13.636A1.366,1.366,0,0,1,11.165,15ZM0,10.909v-.831C0,8.973,2.214,8.417,3.323,8.417s3.324.556,3.324,1.661v.831ZM1.661,5.924A1.662,1.662,0,1,1,3.323,7.585,1.662,1.662,0,0,1,1.661,5.924Z" transform="translate(0 -0.001)" fill="#fff"/>
    </g>
  </g>
</svg>
