<svg xmlns="http://www.w3.org/2000/svg" width="24" height="21" viewBox="0 0 24 21">
  <g id="Groupe_1388" data-name="Groupe 1388" transform="translate(337 6709)">
    <rect id="Rectangle_3464" data-name="Rectangle 3464" width="24" height="21" transform="translate(-337 -6709)" fill="none"/>
    <path id="ic_account_balance_wallet_24px" d="M17.211,14.667v.778A1.572,1.572,0,0,1,15.632,17H4.579A1.567,1.567,0,0,1,3,15.444V4.556A1.567,1.567,0,0,1,4.579,3H15.632a1.572,1.572,0,0,1,1.579,1.556v.778H10.105A1.567,1.567,0,0,0,8.526,6.889v6.222a1.567,1.567,0,0,0,1.579,1.556Zm-7.105-1.556H18V6.889H10.105Zm3.158-1.944A1.167,1.167,0,1,1,14.447,10,1.174,1.174,0,0,1,13.263,11.167Z" transform="translate(-335 -6705)" fill="#fff"/>
  </g>
</svg>
