<svg xmlns="http://www.w3.org/2000/svg" width="24" height="21" viewBox="0 0 24 21">
  <g id="Groupe_1395" data-name="Groupe 1395" transform="translate(226 6518)">
    <rect id="Rectangle_3468" data-name="Rectangle 3468" width="24" height="21" transform="translate(-226 -6518)" fill="none"/>
    <g id="Groupe_1384" data-name="Groupe 1384" transform="translate(-221 -6511.999)">
      <path id="Union_4" data-name="Union 4" d="M5.454,15A1.365,1.365,0,0,1,4.09,13.637V11.591H5.454v.682h6.818V2.728H5.454V3.41H4.09V1.364A1.366,1.366,0,0,1,5.454,0l6.818.007a1.362,1.362,0,0,1,1.364,1.357V13.637A1.365,1.365,0,0,1,12.272,15Zm-2.47-4.091a1.117,1.117,0,0,1-.8-.331L0,8.352S.351,8.008.363,8a.328.328,0,0,1,.22-.081.34.34,0,0,1,.167.045c.012,0,1.2.686,1.2.686V5.331a.419.419,0,0,1,.837,0V7.284h.279V4.633a.418.418,0,0,1,.836,0v2.65h.279V4.912a.419.419,0,0,1,.837,0V7.284H5.3V5.749a.418.418,0,1,1,.837,0V9.794A1.119,1.119,0,0,1,5.02,10.909Z" transform="translate(0 -0.001)" fill="#fff"/>
    </g>
  </g>
</svg>
