<svg xmlns="http://www.w3.org/2000/svg" width="24" height="21" viewBox="0 0 24 21">
  <g id="Groupe_1464" data-name="Groupe 1464" transform="translate(-262 -2715)">
    <rect id="Rectangle_3497" data-name="Rectangle 3497" width="24" height="21" transform="translate(262 2715)" fill="none"/>
    <path id="Soustraction_22" data-name="Soustraction 22" d="M-337.736-2420.133H-352.5a1.5,1.5,0,0,1-1.5-1.5v-.792a1.5,1.5,0,0,1,1.138-1.456c.02-.288.435-6.333.46-6.863a1.562,1.562,0,0,1,.257-.881,1.48,1.48,0,0,1,1.224-.5h.413V-2433a1,1,0,0,1,1-1h1.792a1,1,0,0,1,1,1v.883h4.091v-1.483h-1.695a1,1,0,0,1-1-1V-2435a1,1,0,0,1,1-1h4.188a1,1,0,0,1,1,1v.394a1,1,0,0,1-1,1h-1.695v1.483h2.536a1.539,1.539,0,0,1,1.285.481,1.557,1.557,0,0,1,.269.9c.024.543.457,6.828.462,6.891a1.5,1.5,0,0,1,1.037,1.427v.792A1.5,1.5,0,0,1-337.736-2420.133Zm-7.382-2.294a.8.8,0,0,0-.8.8.8.8,0,0,0,.8.8.8.8,0,0,0,.8-.8A.8.8,0,0,0-345.118-2422.427Zm4.69-4.392a.7.7,0,0,0-.7.7.7.7,0,0,0,.7.7.7.7,0,0,0,.7-.7A.7.7,0,0,0-340.428-2426.819Zm-1.8,0a.7.7,0,0,0-.7.7.7.7,0,0,0,.7.7.7.7,0,0,0,.7-.7A.7.7,0,0,0-342.224-2426.819Zm-1.8,0a.7.7,0,0,0-.7.7.7.7,0,0,0,.7.7.7.7,0,0,0,.7-.7A.7.7,0,0,0-344.021-2426.819Zm-6.675-2.212h0l2.185,2.761,2.185-2.761h-1.322v-2.9h-1.724v2.9H-350.7Zm10.268.417a.7.7,0,0,0-.7.7.7.7,0,0,0,.7.7.7.7,0,0,0,.7-.7A.7.7,0,0,0-340.428-2428.614Zm-1.8,0a.7.7,0,0,0-.7.7.7.7,0,0,0,.7.7.7.7,0,0,0,.7-.7A.7.7,0,0,0-342.224-2428.614Zm-1.8,0a.7.7,0,0,0-.7.7.7.7,0,0,0,.7.7.7.7,0,0,0,.7-.7A.7.7,0,0,0-344.021-2428.614Zm3.593-1.8a.7.7,0,0,0-.7.7.7.7,0,0,0,.7.7.7.7,0,0,0,.7-.7A.7.7,0,0,0-340.428-2430.41Zm-1.8,0a.7.7,0,0,0-.7.7.7.7,0,0,0,.7.7.7.7,0,0,0,.7-.7A.7.7,0,0,0-342.224-2430.41Zm-1.8,0a.7.7,0,0,0-.7.7.7.7,0,0,0,.7.7.7.7,0,0,0,.7-.7A.7.7,0,0,0-344.021-2430.41Z" transform="translate(619 5156)" fill="#f5a766"/>
  </g>
</svg>
