<svg xmlns="http://www.w3.org/2000/svg" width="24" height="21.126" viewBox="0 0 24 21.126">
  <g id="Groupe_1466" data-name="Groupe 1466" transform="translate(-262 -2785)">
    <rect id="Rectangle_3507" data-name="Rectangle 3507" width="24" height="21" transform="translate(262 2785)" fill="none"/>
    <path id="Soustraction_25" data-name="Soustraction 25" d="M-348.728-2421.374h-1.589v-1.66a.372.372,0,0,0-.079-.234l-1.032-1.326-.951-1.223a.375.375,0,0,0-.3-.146H-354v-2.077h.827a.38.38,0,0,0,.374-.327,1.527,1.527,0,0,1,.049-.215,5.141,5.141,0,0,1,1.731-2.519,4.48,4.48,0,0,1,.476-.348.376.376,0,0,0,.174-.3,9.528,9.528,0,0,1,.124-1.218c.018-.092.038-.174.059-.244a5,5,0,0,1,.406.957.378.378,0,0,0,.358.259.38.38,0,0,0,.1-.014,4.075,4.075,0,0,1,1.1-.158c.049,0,.1,0,.139,0a3.253,3.253,0,0,0,2.912,1.785,3.349,3.349,0,0,0,2.686-1.621,4.963,4.963,0,0,1,2.534,1.117,9.625,9.625,0,0,1,1.813,1.923,9.931,9.931,0,0,1,.62.974l.014.024a.384.384,0,0,0,.242.192,2.962,2.962,0,0,0-.186.33,6.476,6.476,0,0,0-.322,1.054,4.488,4.488,0,0,1-.315.987,6.47,6.47,0,0,1-1.037,1.421c-.127.133-.259.259-.394.376-.056.048-.107.091-.145.12a.379.379,0,0,0-.15.292l-.059,1.813h-1.877v-.882a.37.37,0,0,0-.111-.267.374.374,0,0,0-.266-.112h-6.227a.375.375,0,0,0-.266.112.376.376,0,0,0-.11.267v.882Zm1.142-5.8h0l2.561,3.235,2.561-3.235h-1.55v-1.517h-2.021v1.517h-1.552Zm-3.172-3.1a.754.754,0,0,0-.753.752.754.754,0,0,0,.753.753.755.755,0,0,0,.754-.753A.754.754,0,0,0-350.757-2430.27Zm5.516-2.377a1.684,1.684,0,0,1-1.677-1.677,1.684,1.684,0,0,1,1.677-1.677,1.683,1.683,0,0,1,1.677,1.677A1.683,1.683,0,0,1-345.241-2432.647Z" transform="translate(620 5227)" fill="#f5a766" stroke="rgba(0,0,0,0)" stroke-miterlimit="10" stroke-width="1"/>
  </g>
</svg>
