<svg xmlns="http://www.w3.org/2000/svg" width="24" height="21" viewBox="0 0 24 21">
  <g id="Groupe_1430" data-name="Groupe 1430" transform="translate(-181 133)">
    <rect id="Rectangle_3492" data-name="Rectangle 3492" width="24" height="21" transform="translate(181 -133)" fill="none"/>
    <path id="Tracé_1077" data-name="Tracé 1077" d="M2335.588,1488.568l-.027.049h-5.508v-1h-.724v1h-5.509l-.026-.049-3.615,7.04.122.178a4.239,4.239,0,0,0,6.987,0l.124-.178-3.22-6.267h5.137v12.4h-2.938v.724h6.352v-.724h-2.69v-12.4h5.137l-3.22,6.267.123.178a4.239,4.239,0,0,0,6.987,0l.124-.178Zm-9.19,6.651h-5.207l2.6-5.068Zm6.586,0,2.6-5.068,2.6,5.068Z" transform="translate(-2136.179 -1614.619)" fill="#8860a6"/>
  </g>
</svg>
