<svg xmlns="http://www.w3.org/2000/svg" width="24" height="21.322" viewBox="0 0 24 21.322">
  <g id="Groupe_1431" data-name="Groupe 1431" transform="translate(-181 96)">
    <rect id="Rectangle_3493" data-name="Rectangle 3493" width="24" height="21" transform="translate(181 -96)" fill="none"/>
    <g id="Groupe_1429" data-name="Groupe 1429" transform="translate(-1411.308 -1422.669)">
      <path id="Tracé_664" data-name="Tracé 664" d="M1603.7,1335.861l-.528-.489-1.256,1.358v-1.189h-.721v3.249h.721v-1l.275-.3,1.043,1.282.559-.454-1.107-1.362Z" fill="#8860a6"/>
      <path id="Tracé_665" data-name="Tracé 665" d="M1599.11,1335.383a1.858,1.858,0,1,0,1.5,1.823A1.686,1.686,0,0,0,1599.11,1335.383Zm.521,2.635a.611.611,0,0,1-1.04,0,1.409,1.409,0,0,1,0-1.625.611.611,0,0,1,1.04,0,1.408,1.408,0,0,1,0,1.625Z" fill="#8860a6"/>
      <path id="Tracé_666" data-name="Tracé 666" d="M1605.1,1333.678l-8.572-.009h0a1.216,1.216,0,0,0-1.212,1.211l-.01,11.891a1.216,1.216,0,0,0,1.212,1.213l8.572.007a1.216,1.216,0,0,0,1.215-1.21l.01-11.891A1.215,1.215,0,0,0,1605.1,1333.678Zm-7.424,12.752a.622.622,0,1,1,.623-.623A.623.623,0,0,1,1597.68,1346.43Zm0-1.907a.622.622,0,1,1,.622-.622A.622.622,0,0,1,1597.683,1344.523Zm0-1.907a.621.621,0,1,1,.623-.621A.623.623,0,0,1,1597.684,1342.616Zm2.026,3.816a.622.622,0,1,1,.623-.622A.623.623,0,0,1,1599.71,1346.432Zm0-1.907a.622.622,0,1,1,.623-.621A.621.621,0,0,1,1599.712,1344.525Zm0-1.906a.622.622,0,1,1,.623-.622A.622.622,0,0,1,1599.714,1342.619Zm2.029,3.814a.622.622,0,1,1,.621-.622A.622.622,0,0,1,1601.743,1346.433Zm0-1.906a.623.623,0,1,1,.62-.621A.62.62,0,0,1,1601.746,1344.527Zm0-1.907a.622.622,0,1,1,.622-.621A.621.621,0,0,1,1601.746,1342.62Zm2.589,3.331a.549.549,0,1,1-1.1,0l0-2.156a.549.549,0,1,1,1.1,0Zm-.557-3.328a.622.622,0,1,1,.623-.622A.623.623,0,0,1,1603.778,1342.623Zm1.815-2.78h-9.559l0-4.963a.49.49,0,0,1,.491-.49h0l8.572.007a.5.5,0,0,1,.495.493Z" fill="#8860a6"/>
      <path id="Tracé_667" data-name="Tracé 667" d="M1613.893,1337.133v-.328a.976.976,0,0,0-.977-.976h-5.6v.721h5.6a.26.26,0,0,1,.257.257v1.023h-5.858v4.247h5.6a.979.979,0,0,0,.979-.977v-2.936h0v-1.028Zm-1.014,2.659h-3.6v-.72h3.6Z" fill="#8860a6"/>
    </g>
  </g>
</svg>
