<svg xmlns="http://www.w3.org/2000/svg" width="24" height="21" viewBox="0 0 24 21">
  <g id="Groupe_1441" data-name="Groupe 1441" transform="translate(-196 -894)">
    <rect id="Rectangle_3493" data-name="Rectangle 3493" width="24" height="21" transform="translate(196 894)" fill="none"/>
    <g id="Groupe_1432" data-name="Groupe 1432" transform="translate(-1960.805 -556.927)">
      <path id="Tracé_670" data-name="Tracé 670" d="M2162.655,1463.115a5.993,5.993,0,0,0,5.618,8.109,6,6,0,0,0,5.623-8.109Zm3.252,3a.906.906,0,1,1,.906-.908A.907.907,0,0,1,2165.907,1466.112Zm5.152,0a.906.906,0,1,1,.907-.908A.908.908,0,0,1,2171.059,1466.112Z" transform="translate(0.107 0.45)" fill="#ec7165"/>
      <path id="Tracé_671" data-name="Tracé 671" d="M2168.59,1456.927l-7.785,4.066,1.811,1.811h11.945l1.812-1.812Zm1.666,2.7h-.555a1.886,1.886,0,0,1,.222.89,1.357,1.357,0,1,1-2.667,0,1.876,1.876,0,0,1,.221-.89h-.554v-.944h3.333Z" fill="#ec7165"/>
    </g>
  </g>
</svg>
