<svg xmlns="http://www.w3.org/2000/svg" width="24.294" height="21" viewBox="0 0 24.294 21">
  <g id="Groupe_1398" data-name="Groupe 1398" transform="translate(-398 5830)">
    <rect id="Rectangle_3476" data-name="Rectangle 3476" width="24" height="21" transform="translate(398 -5830)" fill="none"/>
    <g id="Groupe_1389" data-name="Groupe 1389" transform="translate(-2522.654 -7833.824)">
      <g id="Groupe_1084" data-name="Groupe 1084" transform="translate(0.62)">
        <path id="Tracé_576" data-name="Tracé 576" d="M2930.271,2019.261l3.389,1.761v3.837l-3.389-1.76Zm7.294,3.839-3.39,1.76v-3.837l3.39-1.761Z" transform="translate(-1.237 -0.287)" fill="#69c2c6"/>
        <path id="Tracé_598" data-name="Tracé 598" d="M2930.271,2019.261l3.389,1.761v3.837l-3.389-1.76Zm7.294,3.839-3.39,1.76v-3.837l3.39-1.761Z" transform="translate(-1.237 -4.366)" fill="#69c2c6"/>
        <path id="Tracé_600" data-name="Tracé 600" d="M2933.919,2017.019l3.36,1.751-3.36,1.746-3.359-1.746Zm-3.648,2.18,3.389,1.761v3.837l-3.389-1.76Zm7.294,3.839-3.39,1.76v-3.837l3.39-1.761Z" transform="translate(-1.237 -8.194)" fill="#69c2c6"/>
      </g>
      <g id="Groupe_1083" data-name="Groupe 1083" transform="translate(-0.133)">
        <path id="Tracé_601" data-name="Tracé 601" d="M2930.271,2019.261l3.389,1.761v3.837l-3.389-1.76Zm7.294,3.839-3.39,1.76v-3.837l3.39-1.761Z" transform="translate(7.516 -0.287)" fill="#69c2c6"/>
        <path id="Tracé_602" data-name="Tracé 602" d="M2930.271,2019.261l3.389,1.761v3.837l-3.389-1.76Zm7.294,3.839-3.39,1.76v-3.837l3.39-1.761Z" transform="translate(7.516 -4.366)" fill="#69c2c6"/>
        <path id="Tracé_603" data-name="Tracé 603" d="M2933.919,2017.019l3.36,1.751-3.36,1.746-3.359-1.746Zm-3.648,2.18,3.389,1.761v3.837l-3.389-1.76Zm7.294,3.839-3.39,1.76v-3.837l3.39-1.761Z" transform="translate(7.516 -8.194)" fill="#69c2c6"/>
      </g>
      <g id="Groupe_1085" data-name="Groupe 1085" transform="translate(1)">
        <path id="Tracé_575" data-name="Tracé 575" d="M2920.654,2019.261l3.39,1.761v3.837l-3.39-1.76Zm7.293,3.839-3.39,1.76v-3.837l3.39-1.761Z" transform="translate(0 -0.287)" fill="#69c2c6"/>
        <path id="Tracé_577" data-name="Tracé 577" d="M2925.463,2011.067l3.39,1.761v3.837l-3.39-1.76Zm7.294,3.839-3.389,1.76v-3.837l3.389-1.761Z" transform="translate(-4.809 3.828)" fill="#69c2c6"/>
        <path id="Tracé_599" data-name="Tracé 599" d="M2929.11,2008.824l3.357,1.753-3.357,1.744-3.358-1.744Zm-3.647,2.181,3.39,1.761v3.837l-3.39-1.76Zm7.294,3.839-3.389,1.76v-3.837l3.389-1.761Z" transform="translate(-4.809)" fill="#69c2c6"/>
      </g>
    </g>
  </g>
</svg>
