<svg xmlns="http://www.w3.org/2000/svg" width="24" height="21" viewBox="0 0 24 21">
  <g id="Groupe_1412" data-name="Groupe 1412" transform="translate(-728 7581)">
    <rect id="Rectangle_3488" data-name="Rectangle 3488" width="24" height="21" transform="translate(728 -7581)" fill="none"/>
    <path id="ic_dialpad_24px" d="M5.875,1A1.875,1.875,0,1,0,7.75,2.875,1.881,1.881,0,0,0,5.875,1Zm0,5.625A1.875,1.875,0,1,0,7.75,8.5,1.881,1.881,0,0,0,5.875,6.625Zm0,5.625A1.875,1.875,0,1,0,7.75,14.125,1.881,1.881,0,0,0,5.875,12.25Zm11.25-7.5A1.875,1.875,0,1,0,15.25,2.875,1.881,1.881,0,0,0,17.125,4.75ZM11.5,12.25a1.875,1.875,0,1,0,1.875,1.875A1.881,1.881,0,0,0,11.5,12.25Zm5.625,0A1.875,1.875,0,1,0,19,14.125,1.881,1.881,0,0,0,17.125,12.25Zm0-5.625A1.875,1.875,0,1,0,19,8.5,1.881,1.881,0,0,0,17.125,6.625Zm-5.625,0A1.875,1.875,0,1,0,13.375,8.5,1.881,1.881,0,0,0,11.5,6.625ZM11.5,1a1.875,1.875,0,1,0,1.875,1.875A1.881,1.881,0,0,0,11.5,1Z" transform="translate(729 -7576)" fill="#b7d47e"/>
  </g>
</svg>
