<svg xmlns="http://www.w3.org/2000/svg" width="24" height="21" viewBox="0 0 24 21">
  <g id="Groupe_1402" data-name="Groupe 1402" transform="translate(-526 5829)">
    <rect id="Rectangle_3480" data-name="Rectangle 3480" width="24" height="21" transform="translate(526 -5829)" fill="none"/>
    <g id="Groupe_1393" data-name="Groupe 1393" transform="translate(-1470.333 -7374.242)">
      <path id="Tracé_926" data-name="Tracé 926" d="M2018.216,1550.632a.411.411,0,0,0-.515-.27l-4.244,1.325a.407.407,0,0,0-.243.2l-4.942,9.432a2.266,2.266,0,0,0-1.588-.078h0a2.32,2.32,0,0,0-1.193.856l-5.552-2.909a.412.412,0,1,0-.383.729l5.579,2.923a2.337,2.337,0,0,0-.093.631,2.309,2.309,0,0,0,.107.7,2.337,2.337,0,0,0,2.23,1.638,2.365,2.365,0,0,0,.7-.105,2.333,2.333,0,0,0,.9-3.942l4.894-9.343,4.081-1.275A.413.413,0,0,0,2018.216,1550.632Zm-10.386,14.286a1.5,1.5,0,0,1-.452.07,1.514,1.514,0,0,1-.45-2.959l-.123-.392.126.391a1.469,1.469,0,0,1,.449-.07,1.514,1.514,0,0,1,1.445,1.063,1.46,1.46,0,0,1,.07.453A1.512,1.512,0,0,1,2007.829,1564.918Zm-8.29-9,3.5-6.672,6.669,3.5-3.495,6.671Z" transform="translate(0)" fill="#69c2c6"/>
    </g>
  </g>
</svg>
