<svg xmlns="http://www.w3.org/2000/svg" xmlns:xlink="http://www.w3.org/1999/xlink" width="24" height="21" viewBox="0 0 24 21">
  <defs>
    <clipPath id="clip-path">
      <rect id="Rectangle_3569" data-name="Rectangle 3569" width="10.537" height="15.398" fill="#69c2c6"/>
    </clipPath>
  </defs>
  <g id="Groupe_1485" data-name="Groupe 1485" transform="translate(-944 7581)">
    <rect id="Rectangle_3494" data-name="Rectangle 3494" width="24" height="21" transform="translate(944 -7581)" fill="none"/>
    <g id="Groupe_1417" data-name="Groupe 1417" transform="translate(951 -7578)">
      <g id="Groupe_1484" data-name="Groupe 1484" transform="translate(0 0)" clip-path="url(#clip-path)">
        <path id="Tracé_1098" data-name="Tracé 1098" d="M8.968,1.458A5.356,5.356,0,0,0,5.329,0H5.2A5.355,5.355,0,0,0,1.568,1.458,4.806,4.806,0,0,0,0,4.956,5.6,5.6,0,0,0,1.2,8.269a11.125,11.125,0,0,1,1.5,2.1,9.64,9.64,0,0,1,.183,1.065c.065.192.014.167.262.273a10.864,10.864,0,0,0,2.125.146,10.879,10.879,0,0,0,2.127-.146c.249-.107.2-.08.262-.272a9.06,9.06,0,0,1,.184-1.065,11.175,11.175,0,0,1,1.5-2.1,5.6,5.6,0,0,0,1.2-3.313,4.8,4.8,0,0,0-1.569-3.5" transform="translate(0 0)" fill="#69c2c6"/>
        <rect id="Rectangle_3566" data-name="Rectangle 3566" width="4.533" height="0.615" transform="translate(3.001 12.462)" fill="#69c2c6"/>
        <rect id="Rectangle_3567" data-name="Rectangle 3567" width="4.533" height="0.614" transform="translate(3.001 13.622)" fill="#69c2c6"/>
        <rect id="Rectangle_3568" data-name="Rectangle 3568" width="4.533" height="0.614" transform="translate(3.001 14.784)" fill="#69c2c6"/>
      </g>
    </g>
  </g>
</svg>
