<svg xmlns="http://www.w3.org/2000/svg" width="24" height="21" viewBox="0 0 24 21">
  <g id="Groupe_1405" data-name="Groupe 1405" transform="translate(-108 4651)">
    <rect id="Rectangle_3481" data-name="Rectangle 3481" width="24" height="21" transform="translate(108 -4651)" fill="none"/>
    <g id="Groupe_1399" data-name="Groupe 1399" transform="translate(-1162.359 -5947.177)">
      <path id="Tracé_623" data-name="Tracé 623" d="M1277.906,1303.213a.63.63,0,0,1,.3.1l2.791,1.595.2-.379a1.624,1.624,0,0,1,1.42-.891h0a1.627,1.627,0,0,1,1.428.878l.2.375,2.777-1.614a.619.619,0,0,1,.3-.1c.115.019.182.005.22.394l0,1.5H1277.7l0-1.484C1277.73,1303.218,1277.8,1303.231,1277.906,1303.213Zm4.3,13.734-5.119-.044v-5.913h5.119Zm0-6.789h-6.849v-4.151h6.849Zm5.95,6.841-5.118-.045v-5.964h5.118Zm1.73-6.841h-6.848v-4.151h6.848Z" fill="#b7d47e"/>
    </g>
  </g>
</svg>
