<svg xmlns="http://www.w3.org/2000/svg" width="24" height="21" viewBox="0 0 24 21">
  <g id="Groupe_1420" data-name="Groupe 1420" transform="translate(-96 3641)">
    <rect id="Rectangle_3489" data-name="Rectangle 3489" width="24" height="21" transform="translate(96 -3641)" fill="none"/>
    <g id="Groupe_1414" data-name="Groupe 1414" transform="translate(-40 -3717)">
      <path id="Tracé_630" data-name="Tracé 630" d="M147.194,82.586a.37.37,0,0,0,.378-.018l.854-.569.523.523a.369.369,0,0,0,.521,0l.523-.523.854.569a.367.367,0,0,0,.2.062.373.373,0,0,0,.174-.043.369.369,0,0,0,.194-.325V76.368a.368.368,0,0,0-.572-.306l-.854.569-.523-.523a.369.369,0,0,0-.521,0l-.523.523-.854-.569a.368.368,0,0,0-.572.306v5.893A.369.369,0,0,0,147.194,82.586Z" transform="translate(-1.58)" fill="#b7d47e"/>
      <path id="Tracé_631" data-name="Tracé 631" d="M153.891,80h-3.315v3.315a1.1,1.1,0,0,1-1.716.92L148.507,84l-.1.1a1.1,1.1,0,0,1-1.562,0l-.1-.1-.351.234a1.1,1.1,0,0,1-1.718-.919V80h-3.315a.368.368,0,0,0-.368.368V97.31a.368.368,0,0,0,.368.368h8.471V93.627a.368.368,0,0,1,.368-.368h4.051V80.368A.368.368,0,0,0,153.891,80ZM148,93.259h-4.42a.368.368,0,1,1,0-.737H148a.368.368,0,0,1,0,.737Zm3.683-1.473h-8.1a.368.368,0,1,1,0-.737h8.1a.368.368,0,1,1,0,.737Zm0-1.473h-8.1a.368.368,0,1,1,0-.737h8.1a.368.368,0,1,1,0,.737Zm0-1.473h-8.1a.368.368,0,1,1,0-.737h8.1a.368.368,0,1,1,0,.737Zm0-1.473h-8.1a.368.368,0,1,1,0-.737h8.1a.368.368,0,1,1,0,.737Zm0-1.473h-8.1a.368.368,0,1,1,0-.737h8.1a.368.368,0,1,1,0,.737Z" transform="translate(0 -1.054)" fill="#b7d47e"/>
      <path id="Tracé_632" data-name="Tracé 632" d="M154,102.467,157.467,99H154Z" transform="translate(-3.424 -6.058)" fill="#b7d47e"/>
    </g>
  </g>
</svg>
