<svg xmlns="http://www.w3.org/2000/svg" width="24" height="21.357" viewBox="0 0 24 21.357">
  <g id="Groupe_1450" data-name="Groupe 1450" transform="translate(-196 -1894)">
    <rect id="Rectangle_3497" data-name="Rectangle 3497" width="24" height="21" transform="translate(196 1894)" fill="none"/>
    <g id="Groupe_1449" data-name="Groupe 1449" transform="translate(-1074.083 -47.105)">
      <path id="Tracé_686" data-name="Tracé 686" d="M1277.474,1953.3V1948.1h-1.351v5.194a2.719,2.719,0,0,0-2.023,2.323h-.016v.3a2.719,2.719,0,0,0,2.04,2.626v3.911h1.351v-3.911a2.71,2.71,0,0,0,0-5.251Zm.689,2.625a1.364,1.364,0,1,1-2.727,0v-.053a1.364,1.364,0,0,1,2.727.053Z" fill="#ec7165"/>
      <path id="Tracé_687" data-name="Tracé 687" d="M1283.452,1956.445v-8.34H1282.1v8.34a2.71,2.71,0,0,0,0,5.252v.765h1.351v-.765a2.711,2.711,0,0,0,0-5.252Zm.687,2.628a1.364,1.364,0,1,1-1.361-1.365A1.367,1.367,0,0,1,1284.139,1959.073Z" transform="translate(-0.311)" fill="#ec7165"/>
      <path id="Tracé_688" data-name="Tracé 688" d="M1291.47,1952.2a2.719,2.719,0,0,0-2.04-2.625V1948.1h-1.351v1.465a2.72,2.72,0,0,0-2.023,2.324h-.017v.3a2.718,2.718,0,0,0,2.04,2.627v7.639h1.351v-7.639A2.72,2.72,0,0,0,1291.47,1952.2Zm-1.351,0a1.365,1.365,0,1,1-1.364-1.364A1.37,1.37,0,0,1,1290.119,1952.2Z" transform="translate(-0.623)" fill="#ec7165"/>
    </g>
  </g>
</svg>
