<svg xmlns="http://www.w3.org/2000/svg" width="24" height="21.464" viewBox="0 0 24 21.464">
  <g id="Groupe_1451" data-name="Groupe 1451" transform="translate(-196 -1859)">
    <rect id="Rectangle_3496" data-name="Rectangle 3496" width="24" height="21" transform="translate(196 1859)" fill="none"/>
    <g id="Groupe_1448" data-name="Groupe 1448" transform="translate(-1476.811 870.568)">
      <path id="Tracé_681" data-name="Tracé 681" d="M1690.8,1005.682a1.857,1.857,0,1,0-1.857,1.856A1.861,1.861,0,0,0,1690.8,1005.682Z" fill="#ec7165"/>
      <path id="Tracé_682" data-name="Tracé 682" d="M1689.663,997.947v-2.515h-11.852v9.916h8.491a2.656,2.656,0,0,1,5.271,0h.807v-7.4Zm-3.489,3.888h-7.213v-.8h7.213Zm0-1.954h-7.213v-.8h7.213Zm0-1.954h-7.213v-.8h7.213Z" fill="#ec7165"/>
      <path id="Tracé_683" data-name="Tracé 683" d="M1690.466,995.957v1.188h1.288Z" fill="#ec7165"/>
      <path id="Tracé_684" data-name="Tracé 684" d="M1687.561,1007.7l-.151-.086-1.2,2.145h1.766v-1.87l-.11-.044A2.4,2.4,0,0,1,1687.561,1007.7Z" fill="#ec7165"/>
      <path id="Tracé_685" data-name="Tracé 685" d="M1690.2,1007.72a2.27,2.27,0,0,1-.236.145l-.09.05v1.981h1.766l-1.282-2.285Z" fill="#ec7165"/>
    </g>
  </g>
</svg>
