<svg xmlns="http://www.w3.org/2000/svg" viewBox="0 0 626.1 203.76"><defs><style>.a{fill:#b7d37e;}.b{fill:#404040;}</style></defs><path class="a" d="M134.32,145a8.63,8.63,0,1,0,8.63,8.63A8.64,8.64,0,0,0,134.32,145Z"/><path class="a" d="M84.29,145a8.63,8.63,0,1,0,8.62,8.63A8.64,8.64,0,0,0,84.29,145Z"/><path class="a" d="M176.75,57.62c3.78,0,6.85-3.61,6.85-8s-3.07-8-6.85-8H163.81a2.12,2.12,0,0,0-2,1.3l-27,64.24L116.34,66.68a7.74,7.74,0,0,0-1.91-3A6.84,6.84,0,0,0,109.76,62a6.63,6.63,0,0,0-4.71,1.79,7.28,7.28,0,0,0-1.88,3L82.71,111.49c0,.06,0,.13-.08.2s-.19.56-.5,1.44c-9.95-13.38-16.2-30.48-17.71-48.59a2.11,2.11,0,0,0-2.11-1.94l-8.44,0h0a2.12,2.12,0,0,0-2.12,2.28c1.85,25,11.22,48,26.4,64.81a1.65,1.65,0,0,0,.24.22l.4.39a7.77,7.77,0,0,0,1.56,1.33,7.31,7.31,0,0,0,9.09-.41A6.32,6.32,0,0,0,91,129l18.8-41.28,18.76,41.2a5.75,5.75,0,0,0,1.5,2.24,6.82,6.82,0,0,0,4.86,1.87,6.72,6.72,0,0,0,4.78-1.8,6.56,6.56,0,0,0,1.59-2.36l26.94-71.2Z"/><path class="a" d="M207.11,167.44a5.3,5.3,0,0,0-5.31,5.3A13.29,13.29,0,0,1,188.53,186H46.8a13.3,13.3,0,0,1-13.27-13.28V31A13.29,13.29,0,0,1,46.8,17.75H188.53A13.28,13.28,0,0,1,201.8,31a5.31,5.31,0,1,0,10.62,0A23.92,23.92,0,0,0,188.53,7.13H46.8A23.91,23.91,0,0,0,22.92,31V172.74A23.91,23.91,0,0,0,46.8,196.63H188.53a23.91,23.91,0,0,0,23.89-23.89A5.3,5.3,0,0,0,207.11,167.44Z"/><path class="b" d="M176,114.93V104.87a19.2,19.2,0,0,1,6.46-14.45,21.86,21.86,0,0,1,15.56-6.09,21.63,21.63,0,0,1,14.87,5.51,17.8,17.8,0,0,1,6.19,13.9,15.22,15.22,0,0,1-.74,5.24,4.85,4.85,0,0,1-2.33,2.8,10.08,10.08,0,0,1-3,1,24.85,24.85,0,0,1-3.6.21H187.15v2.46A10.44,10.44,0,0,0,191,124a15.19,15.19,0,0,0,10,3.14,17.43,17.43,0,0,0,8.2-2c2.57-1.35,4.15-2,4.71-2a3.75,3.75,0,0,1,3.07,1.7,5.51,5.51,0,0,1,1.27,3.29q0,2.63-5.08,5.29A26.61,26.61,0,0,1,200.6,136q-10.8,0-17.68-5.82A19,19,0,0,1,176,114.93Zm11.11-9h17.58a5.47,5.47,0,0,0,3.12-.62,3.11,3.11,0,0,0,.79-2.51,9.41,9.41,0,0,0-3.07-7.08A10.63,10.63,0,0,0,198,92.8a11.28,11.28,0,0,0-7.62,2.76,8.93,8.93,0,0,0-3.18,7Z"/><path class="b" d="M224.42,64a5.61,5.61,0,0,1,1.86-4.24A6.46,6.46,0,0,1,230.87,58a6.56,6.56,0,0,1,4.55,1.74,5.46,5.46,0,0,1,1.91,4.14q0,2.3-5.29,13.37a2.29,2.29,0,0,1-2.44,1.49,4.66,4.66,0,0,1-2.59-.79,2.43,2.43,0,0,1-1.22-2.1,2.57,2.57,0,0,1,.32-1.2l2.33-5.28Q224.42,67.66,224.42,64Z"/><path class="b" d="M244.32,131.44V88.57A3,3,0,0,1,245.85,86a7,7,0,0,1,3.87-1,6.2,6.2,0,0,1,3.6,1,3.06,3.06,0,0,1,1.48,2.62v4.71A16.7,16.7,0,0,1,260.25,87a13.42,13.42,0,0,1,8-2.63h3.39a3.87,3.87,0,0,1,3,1.45,5.11,5.11,0,0,1,1.27,3.48,5.33,5.33,0,0,1-1.27,3.53,3.81,3.81,0,0,1-3,1.5h-3.39a11.69,11.69,0,0,0-8.94,4.32q-3.87,4.33-3.86,11.2v21.64a3.21,3.21,0,0,1-1.7,2.54,7,7,0,0,1-4,1.16,6.23,6.23,0,0,1-3.87-1.17A3.23,3.23,0,0,1,244.32,131.44Z"/><path class="b" d="M300.85,123.5a6.74,6.74,0,0,1,1.48-4,4.21,4.21,0,0,1,3.39-2,4.76,4.76,0,0,1,2.8,1.36c1.1.9,2.17,1.88,3.23,2.93a15.46,15.46,0,0,0,4.82,2.93,18.62,18.62,0,0,0,7.25,1.35q6,0,9.68-2.87t3.66-8.41a11.33,11.33,0,0,0-3.55-8.51,26.48,26.48,0,0,0-8.57-5.43q-5-2-10.11-4.36a22.64,22.64,0,0,1-8.63-7,18.79,18.79,0,0,1-3.55-11.71A20.61,20.61,0,0,1,304.92,68a15.76,15.76,0,0,1,5.88-6.34,28.16,28.16,0,0,1,7.78-3.22,35.88,35.88,0,0,1,8.63-1,52.45,52.45,0,0,1,6,.36A42.83,42.83,0,0,1,339.38,59a14.2,14.2,0,0,1,5.08,2.41,4.48,4.48,0,0,1,2,3.56,7.49,7.49,0,0,1-1.27,4,3.85,3.85,0,0,1-3.39,2A6.46,6.46,0,0,1,339,70a28.73,28.73,0,0,0-4.82-2,21.89,21.89,0,0,0-6.93-1q-6,0-9.64,2.4a8.16,8.16,0,0,0-3.6,7.29,8.28,8.28,0,0,0,1.91,5.48,14.75,14.75,0,0,0,4.92,3.78q3,1.48,6.72,2.93a70.86,70.86,0,0,1,7.36,3.35,38,38,0,0,1,6.67,4.42,18.07,18.07,0,0,1,4.92,6.86,25.08,25.08,0,0,1,1.91,10.11q0,10.93-6.62,16.67T324.24,136q-9.74,0-16.57-4.07T300.85,123.5Z"/><path class="b" d="M355.89,114.93V104.87a19.2,19.2,0,0,1,6.46-14.45,21.86,21.86,0,0,1,15.56-6.09,21.59,21.59,0,0,1,14.87,5.51,17.81,17.81,0,0,1,6.2,13.9,15.46,15.46,0,0,1-.74,5.24,4.89,4.89,0,0,1-2.33,2.8,10.23,10.23,0,0,1-3,1,24.66,24.66,0,0,1-3.6.21H367v2.46a10.44,10.44,0,0,0,3.81,8.48,15.16,15.16,0,0,0,9.95,3.14,17.4,17.4,0,0,0,8.2-2q3.87-2,4.71-2a3.74,3.74,0,0,1,3.07,1.7A5.51,5.51,0,0,1,398,128q0,2.63-5.08,5.29A26.58,26.58,0,0,1,380.45,136q-10.8,0-17.68-5.82A19,19,0,0,1,355.89,114.93Zm11.12-9h17.57a5.47,5.47,0,0,0,3.12-.62,3.11,3.11,0,0,0,.8-2.51,9.44,9.44,0,0,0-3.07-7.08,10.67,10.67,0,0,0-7.62-2.92,11.29,11.29,0,0,0-7.63,2.76,9,9,0,0,0-3.17,7Z"/><path class="b" d="M408,131.44V88.57A3,3,0,0,1,409.51,86a6.9,6.9,0,0,1,3.86-1,6.18,6.18,0,0,1,3.6,1,3.07,3.07,0,0,1,1.49,2.62v4.71A16.62,16.62,0,0,1,423.91,87a13.4,13.4,0,0,1,8-2.63h3.39a3.86,3.86,0,0,1,3,1.45,5.06,5.06,0,0,1,1.27,3.48,5.28,5.28,0,0,1-1.27,3.53,3.79,3.79,0,0,1-3,1.5H431.9A11.71,11.71,0,0,0,423,98.61a16.22,16.22,0,0,0-3.86,11.2v21.64A3.2,3.2,0,0,1,417.4,134a7,7,0,0,1-4,1.16,6.18,6.18,0,0,1-3.86-1.17A3.23,3.23,0,0,1,408,131.44Z"/><path class="b" d="M441.21,89.31c0-1.27.81-2.38,2.44-3.33a9.45,9.45,0,0,1,4.87-1.43q2.64,0,3.39,2L464.5,120l12.6-33.24a3.29,3.29,0,0,1,3.39-2.22A9.84,9.84,0,0,1,485.15,86c1.76,1,2.64,2.08,2.64,3.28a5,5,0,0,1-.42,1.8L469.58,134c-.63,1.48-2.32,2.23-5.08,2.23s-4.44-.75-5.08-2.23L441.74,91.11A4.2,4.2,0,0,1,441.21,89.31Z"/><path class="b" d="M493.72,66.55a5.33,5.33,0,0,1,1.91-4.13,7,7,0,0,1,9.1,0,5.32,5.32,0,0,1,1.9,4.13,5.39,5.39,0,0,1-1.9,4.08,6.82,6.82,0,0,1-9.1,0A5.4,5.4,0,0,1,493.72,66.55Zm.95,64.89V88.57A3,3,0,0,1,496.21,86a7.1,7.1,0,0,1,4-1,7.4,7.4,0,0,1,4,1,3,3,0,0,1,1.59,2.59v42.87a3.21,3.21,0,0,1-1.64,2.54,6.68,6.68,0,0,1-4,1.17,6.42,6.42,0,0,1-3.92-1.17A3.21,3.21,0,0,1,494.67,131.44Z"/><path class="b" d="M515.74,114.93V105.4q0-9.42,5.5-15.24t16.41-5.83a25.15,25.15,0,0,1,11.54,2.39c3.1,1.58,4.66,3.37,4.66,5.34a6,6,0,0,1-1.33,3.6,3.82,3.82,0,0,1-3.12,1.8,17.55,17.55,0,0,1-3.76-1.59,15.92,15.92,0,0,0-7.14-1.58q-11.65,0-11.65,11.14v9.47q0,11.14,11.75,11.14a15.39,15.39,0,0,0,7.26-1.69,15.14,15.14,0,0,1,3.86-1.69,4.16,4.16,0,0,1,3.44,1.69,5.76,5.76,0,0,1,1.32,3.6q0,3-4.87,5.5A25.25,25.25,0,0,1,537.76,136q-11,0-16.52-5.77T515.74,114.93Z"/><path class="b" d="M560.09,114.93V104.87a19.23,19.23,0,0,1,6.46-14.45,21.87,21.87,0,0,1,15.56-6.09A21.64,21.64,0,0,1,597,89.84a17.83,17.83,0,0,1,6.19,13.9,15.46,15.46,0,0,1-.74,5.24,4.89,4.89,0,0,1-2.33,2.8,10.28,10.28,0,0,1-3,1,24.85,24.85,0,0,1-3.6.21H571.21v2.46A10.44,10.44,0,0,0,575,124a15.16,15.16,0,0,0,10,3.14,17.46,17.46,0,0,0,8.21-2q3.86-2,4.71-2a3.75,3.75,0,0,1,3.07,1.7,5.58,5.58,0,0,1,1.27,3.29c0,1.75-1.7,3.51-5.08,5.29a26.65,26.65,0,0,1-12.5,2.66q-10.78,0-17.67-5.82A19,19,0,0,1,560.09,114.93Zm11.12-9h17.57a5.51,5.51,0,0,0,3.13-.62,3.14,3.14,0,0,0,.79-2.51,9.44,9.44,0,0,0-3.07-7.08A10.67,10.67,0,0,0,582,92.8a11.25,11.25,0,0,0-7.62,2.76,8.93,8.93,0,0,0-3.18,7Z"/></svg>