<svg xmlns="http://www.w3.org/2000/svg" width="537.6" height="537.6" viewBox="0 0 537.6 537.6">
  <g id="noun-smiley-596935" transform="translate(-81.2 -11.199)">
    <path id="Tracé_10099" data-name="Tracé 10099" d="M350,11.2a268.8,268.8,0,1,0,190.07,78.73A268.8,268.8,0,0,0,350,11.2Zm0,515.2a246.4,246.4,0,1,1,174.23-72.168A246.392,246.392,0,0,1,350,526.4Zm120.62-153.21a11.2,11.2,0,0,1-1.457,15.793c-43.793,36.625-84.895,48.945-120.29,48.945a179.189,179.189,0,0,1-119.05-49.844,11.208,11.208,0,1,1,16.239-15.453c3.809,3.922,93.52,95.426,208.66-.895v0a11.209,11.209,0,0,1,15.906,1.457ZM238,212.809a33.6,33.6,0,1,1,9.84,23.758A33.6,33.6,0,0,1,238,212.809Zm156.8,0a33.6,33.6,0,1,1,9.84,23.758A33.6,33.6,0,0,1,394.8,212.809Z"/>
  </g>
</svg>
